<svg width="1208" height="993" viewBox="0 0 1208 993" fill="none" xmlns="http://www.w3.org/2000/svg">
<path d="M661.285 552.067V492.505H671.921V552.067H661.285ZM701.49 552.067V510.714H711.701V515.138C713.998 511.48 717.402 509.352 721.741 509.352C727.187 509.352 731.016 511.735 732.803 516.415C735.1 511.99 739.014 509.352 744.119 509.352C752.033 509.352 756.372 514.202 756.372 523.477L756.542 552.067H746.247V525.945C746.247 521.095 744.46 518.882 740.716 518.882C736.547 518.882 733.994 522.201 733.994 529.008L734.164 552.067H724.209V525.945C724.209 521.095 722.337 518.882 718.508 518.882C714.339 518.882 711.701 522.286 711.701 528.838V552.067H701.49ZM765.306 552.067V510.714H775.942V552.067H765.306ZM770.497 491.569C774.156 491.569 777.134 494.547 777.134 498.206C777.134 501.865 774.156 504.843 770.497 504.843C766.838 504.843 763.945 501.865 763.945 498.206C763.945 494.547 767.008 491.569 770.497 491.569ZM782.283 537.857L792.153 535.9C793.089 540.75 796.322 543.643 801.172 543.643C805.597 543.643 808.065 541.941 808.065 539.644C808.065 537.602 806.193 536.155 800.322 535.474C790.366 534.539 784.921 529.688 784.921 521.945C784.921 514.713 791.728 509.352 800.492 509.352C807.979 509.352 814.361 514.202 816.488 521.605L807.554 524.413C806.533 520.924 804.15 519.138 800.492 519.138C797.429 519.138 795.386 520.159 795.386 521.945C795.386 523.732 796.663 524.838 801.428 525.264C812.659 526.37 818.36 531.05 818.36 539.133C818.36 547.557 811.128 553.343 801.172 553.343C791.557 553.343 784.24 547.132 782.283 537.857ZM822.251 537.857L832.121 535.9C833.057 540.75 836.291 543.643 841.141 543.643C845.565 543.643 848.033 541.941 848.033 539.644C848.033 537.602 846.161 536.155 840.29 535.474C830.334 534.539 824.889 529.688 824.889 521.945C824.889 514.713 831.696 509.352 840.46 509.352C847.948 509.352 854.329 514.202 856.456 521.605L847.522 524.413C846.501 520.924 844.119 519.138 840.46 519.138C837.397 519.138 835.355 520.159 835.355 521.945C835.355 523.732 836.631 524.838 841.396 525.264C852.628 526.37 858.328 531.05 858.328 539.133C858.328 547.557 851.096 553.343 841.141 553.343C831.526 553.343 824.208 547.132 822.251 537.857ZM884.962 552.067V510.714H895.172V515.138C897.47 511.48 900.873 509.352 905.213 509.352C910.658 509.352 914.487 511.735 916.274 516.415C918.572 511.99 922.486 509.352 927.591 509.352C935.504 509.352 939.844 514.202 939.844 523.477L940.014 552.067H929.718V525.945C929.718 521.095 927.931 518.882 924.187 518.882C920.018 518.882 917.465 522.201 917.465 529.008L917.636 552.067H907.68V525.945C907.68 521.095 905.808 518.882 901.979 518.882C897.81 518.882 895.172 522.286 895.172 528.838V552.067H884.962ZM946.31 555.045L956.351 553.683C956.095 559.725 959.839 563.128 965.285 563.128C971.496 563.128 975.666 558.704 975.666 551.556V546.025C972.688 549.599 968.603 551.386 963.413 551.386C954.309 551.386 948.948 545.089 948.948 535.134L948.778 510.714H959.414V533.092C959.414 538.963 961.881 541.856 966.902 541.856C972.262 541.856 975.666 537.857 975.666 531.135V510.714H986.302V551.131C986.302 563.383 977.793 572.488 965.285 572.488C953.883 572.488 945.8 565.681 946.31 555.045ZM1015.42 552.067V510.714H1025.63V515.138C1027.93 511.48 1031.33 509.352 1035.67 509.352C1041.12 509.352 1044.94 511.735 1046.73 516.415C1049.03 511.99 1052.94 509.352 1058.05 509.352C1065.96 509.352 1070.3 514.202 1070.3 523.477L1070.47 552.067H1060.18V525.945C1060.18 521.095 1058.39 518.882 1054.64 518.882C1050.48 518.882 1047.92 522.201 1047.92 529.008L1048.09 552.067H1038.14V525.945C1038.14 521.095 1036.27 518.882 1032.44 518.882C1028.27 518.882 1025.63 522.286 1025.63 528.838V552.067H1015.42ZM1116.25 510.714V552.067H1105.61V548.153C1102.55 551.641 1098.55 553.428 1093.53 553.428C1084.43 553.428 1079.15 547.132 1079.15 537.176V510.714H1089.79V535.219C1089.79 541.005 1092.17 543.898 1097.02 543.898C1102.21 543.898 1105.61 539.899 1105.61 533.177V510.714H1116.25ZM1125.1 552.067V510.714H1135.31V515.138C1137.61 511.48 1141.01 509.352 1145.35 509.352C1150.8 509.352 1154.63 511.735 1156.42 516.415C1158.71 511.99 1162.63 509.352 1167.73 509.352C1175.65 509.352 1179.99 514.202 1179.99 523.477L1180.16 552.067H1169.86V525.945C1169.86 521.095 1168.07 518.882 1164.33 518.882C1160.16 518.882 1157.61 522.201 1157.61 529.008L1157.78 552.067H1147.82V525.945C1147.82 521.095 1145.95 518.882 1142.12 518.882C1137.95 518.882 1135.31 522.286 1135.31 528.838V552.067H1125.1ZM1190.28 533.517V492.505H1200.92V533.517H1190.28ZM1195.73 539.389C1199.22 539.389 1202.19 542.282 1202.19 545.94C1202.19 549.769 1199.39 552.747 1195.73 552.747C1191.9 552.747 1188.92 549.769 1188.92 545.94C1188.92 542.282 1191.9 539.389 1195.73 539.389Z" fill="#11325B"/>
<path d="M750.106 452.121C743.148 395.421 661.661 353.403 602.509 360.751" stroke="#133050" stroke-width="9.67199" stroke-linecap="round"/>
<g clip-path="url(#clip0_62_218)">
<path d="M94.2857 643.961C94.2857 643.961 74.8324 648.873 73.7997 662.194C72.7584 675.514 80.8005 677.709 80.8005 677.709C80.8005 677.709 57.3261 714.175 62.7778 751.672C68.221 789.168 87.4204 805.468 97.274 805.468C107.128 805.468 110.497 795.127 110.497 795.127C110.497 795.127 127.351 816.594 141.878 809.089C156.404 801.585 149.395 784.002 149.395 784.002C149.395 784.002 169.627 794.089 179.997 788.4C190.367 782.71 191.408 771.07 183.366 764.604C175.324 758.138 161.577 754.516 156.396 737.71C151.207 720.903 156.912 712.369 165.471 717.535C174.029 722.71 177.398 734.342 184.408 733.827C191.408 733.312 207.23 721.41 188.818 695.807C170.406 670.205 148.1 669.943 148.1 669.943C148.1 669.943 157.437 655.458 148.362 643.564C139.287 631.67 94.2857 643.952 94.2857 643.952V643.961Z" fill="white"/>
<path d="M136.953 395.558C113.089 395.558 90.2666 471.074 90.2666 522.279C90.2666 573.484 91.3078 612.28 91.3078 612.28L96.4971 651.592C96.4971 651.592 103.76 660.126 114.13 657.019C124.5 653.913 126.32 645.125 126.32 645.125C126.32 645.125 121.656 623.398 117.5 577.367C113.352 531.337 121.91 476.764 132.28 446.763C142.65 416.763 156.398 395.558 136.944 395.558H136.953Z" fill="#FF6E53"/>
<path d="M153.654 805.316C153.95 804.768 154.298 804.21 154.501 803.704C156.287 799.238 155.914 794.351 154.873 790.046C155.652 790.409 156.388 790.814 157.184 791.152C163.017 793.642 167.901 794.579 171.956 794.579C180.98 794.579 185.865 789.919 187.922 787.26C193.009 780.676 193.687 770.487 189.403 765.001C187.278 762.282 184.155 759.961 180.54 757.268C173.734 752.204 165.26 745.898 161.061 734.477C156.82 722.971 159.275 720.43 159.385 720.321C159.842 719.899 160.985 719.924 162.196 720.414C166.767 722.245 168.773 725.36 170.898 728.644C173.48 732.637 176.4 737.153 183.418 737.921C189.209 738.562 194.897 735.726 198.156 730.535C200.747 726.407 205.36 714.581 192.358 694.001C183.384 679.802 164.007 670.736 155.72 667.368C159.267 660.075 158.733 651.921 154.247 645.514C149.066 638.128 139.466 634.169 128.131 634.523C125.659 619.675 123.958 605.477 122.95 591.937L122.324 583.318C117.355 493.545 141.329 434.81 150.183 416.577C155.381 405.865 151.132 397.171 144.986 393.625C137.511 389.303 125.067 391.068 115.425 405.165C103.421 422.706 83.7306 487.197 84.7549 570.251L84.9242 578.709C85.4998 598.538 87.2606 619.329 90.6129 640.745C76.8567 644.054 68.3152 654.166 69.7967 665.68C70.3384 669.901 72.3363 674.054 75.7224 677.667C71.1342 686.37 61.3229 707.844 59.1642 735.954C57.3696 759.48 65.0646 784.973 78.3212 799.374C84.611 806.219 91.5695 809.875 98.4433 809.942H98.6296C102.701 809.942 106.248 808.575 108.906 805.958C110.32 804.573 111.336 802.978 112.098 801.374C118.701 808.929 126.675 814.627 135.852 814.644C143.191 813.749 148.753 812.019 153.671 805.308L153.654 805.316ZM122.079 646.763C120.961 648.747 117.643 653.28 110.633 653.618C102.185 653.888 100.28 650.106 100.196 650.106C100.196 650.106 100.196 650.106 100.196 650.123C79.244 534.148 107.29 431.088 121.977 409.622C128.758 399.72 136.597 397.947 140.982 400.48C144.85 402.708 145.646 407.672 143.005 413.108C131.974 435.823 97.9777 519.603 122.079 646.746V646.763ZM91.9166 648.595C92.1197 649.743 92.289 650.874 92.4922 652.022C92.6192 652.427 95.6498 661.569 109.448 661.569C109.965 661.569 110.481 661.569 111.023 661.527C125.101 660.843 129.748 649.228 129.943 648.73L130.349 647.675L130.137 646.561C129.875 645.193 129.714 643.902 129.46 642.543C137.536 642.543 144.258 645.117 147.712 650.047C150.581 654.141 150.878 659.223 148.524 663.992C143.767 673.623 129.672 679.887 110.828 680.739C89.4447 681.634 78.7699 673.353 77.6525 664.659C76.8567 658.556 81.0471 651.389 91.8996 648.595H91.9166ZM98.7311 760.873C96.5217 756.171 90.5452 759.252 91.197 763.397C91.4002 764.688 96.9365 780.051 106.138 793.667C105.817 796.394 104.471 802.016 98.5957 802.016H98.4941C93.8805 801.965 88.9198 799.205 84.1454 794.013C74.2833 783.284 65.1746 761.371 67.0708 736.562C68.9925 711.415 77.6102 691.519 82.0883 682.647C88.2511 686.319 96.6402 688.742 107.594 688.742C108.771 688.742 109.965 688.716 111.192 688.657C129.088 687.855 143.005 682.588 150.971 674.029C156.947 676.35 177.239 684.969 185.619 698.221C192.976 709.862 195.143 720.363 191.41 726.322C189.776 728.914 186.906 730.332 184.29 730.028C181.158 729.691 179.981 728.036 177.586 724.347C175.139 720.549 172.083 715.838 165.184 713.044C160.9 711.322 156.668 711.905 153.849 714.614C149.659 718.666 149.565 726.263 153.595 737.195C158.615 750.836 168.545 758.222 175.791 763.625C178.94 765.963 181.666 767.989 183.13 769.871C184.781 771.982 184.883 778.186 181.624 782.415C177.679 787.505 170.094 788.003 160.308 783.85C134.641 772.918 124.263 745.889 124.093 745.653C121.08 741.584 115.374 744.21 116.644 748.43C117.473 751.182 124.838 769.677 143.953 783.571C145.9 787.184 149.278 795.372 147.11 800.766C146.078 803.349 143.767 805.105 140.084 806.135C120.495 811.647 104.801 773.796 98.7396 760.873H98.7311Z" fill="#133050"/>
</g>
<g clip-path="url(#clip1_62_218)">
<path d="M498.993 641.067C498.993 641.067 518.703 644.822 520.522 658.059C522.35 671.294 514.452 673.96 514.452 673.96C514.452 673.96 540.043 708.977 536.819 746.729C533.604 784.481 515.402 801.887 505.566 802.468C495.73 803.05 491.755 792.926 491.755 792.926C491.755 792.926 476.2 815.35 461.255 808.716C446.309 802.083 452.266 784.116 452.266 784.116C452.266 784.116 432.666 795.381 421.978 790.313C411.289 785.246 409.561 773.687 417.206 766.758C424.852 759.828 438.361 755.402 442.539 738.319C446.724 721.235 440.524 713.053 432.286 718.715C424.049 724.386 421.374 736.196 414.346 736.096C407.327 735.995 390.829 725.048 407.694 698.403C424.559 671.759 446.811 670.18 446.811 670.18C446.811 670.18 436.633 656.272 444.988 643.863C453.343 631.454 498.993 641.058 498.993 641.058L498.993 641.067Z" fill="white"/>
<path d="M441.704 395.617C465.526 394.208 492.777 468.245 495.806 519.36C498.836 570.476 500.092 609.266 500.092 609.266L497.238 648.815C497.238 648.815 490.492 657.763 479.956 655.274C469.421 652.785 467.084 644.121 467.084 644.121C467.084 644.121 470.455 622.155 471.88 575.96C473.298 529.765 461.525 475.793 449.398 446.457C437.271 417.121 422.293 396.765 441.712 395.617L441.704 395.617Z" fill="#FF6E53"/>
<path d="M449.275 805.645C448.947 805.115 448.567 804.579 448.335 804.086C446.287 799.733 446.37 794.833 447.155 790.474C446.399 790.882 445.688 791.33 444.913 791.714C439.238 794.544 434.418 795.768 430.37 796.007C421.362 796.54 416.21 792.177 413.999 789.644C408.531 783.371 407.252 773.241 411.203 767.51C413.163 764.672 416.144 762.17 419.593 759.268C426.088 753.811 434.174 747.016 437.69 735.367C441.243 723.631 438.642 721.24 438.525 721.137C438.044 720.742 436.905 720.835 435.725 721.395C431.27 723.494 429.452 726.721 427.525 730.125C425.184 734.263 422.536 738.944 415.575 740.125C409.833 741.107 403.987 738.611 400.426 733.622C397.596 729.654 392.291 718.121 404.053 696.809C412.171 682.106 430.977 671.912 439.051 668.06C435.079 660.989 435.129 652.818 439.229 646.157C443.963 638.478 453.312 633.959 464.648 633.644C466.237 618.676 467.096 604.402 467.3 590.826L467.416 582.186C467.064 492.276 439.657 435.059 429.739 417.381C423.917 406.994 427.645 398.064 433.57 394.162C440.776 389.406 453.303 390.433 463.762 403.936C476.783 420.738 500.254 483.954 504.146 566.924L504.477 575.377C505.076 595.205 504.548 616.063 502.469 637.64C516.397 640.131 525.522 649.721 524.724 661.303C524.433 665.548 522.685 669.812 519.518 673.618C524.613 682.035 535.678 702.893 539.496 730.826C542.679 754.205 536.506 780.107 524.125 795.266C518.251 802.471 511.521 806.53 504.663 807.004L504.477 807.015C500.413 807.255 496.791 806.099 493.983 803.644C492.489 802.345 491.381 800.813 490.526 799.257C484.381 807.188 476.758 813.347 467.598 813.906C460.219 813.446 454.565 812.047 449.258 805.638L449.275 805.645ZM471.414 645.505C472.647 647.42 476.228 651.749 483.245 651.672C491.695 651.443 493.372 647.555 493.457 647.55C493.457 647.55 493.457 647.55 493.458 647.567C507.511 530.558 473.417 429.334 457.485 408.772C450.13 399.288 442.2 397.981 437.973 400.768C434.243 403.221 433.742 408.223 436.7 413.494C449.055 435.518 487.95 517.145 471.413 645.488L471.414 645.505ZM501.632 645.553C501.497 646.711 501.395 647.85 501.26 649.008C501.157 649.42 498.673 658.725 484.899 659.54C484.383 659.57 483.868 659.601 483.324 659.591C469.231 659.739 463.904 648.419 463.68 647.933L463.212 646.904L463.358 645.779C463.539 644.398 463.623 643.099 463.796 641.728C455.734 642.204 449.177 645.171 446.021 650.296C443.398 654.553 443.403 659.643 446.034 664.265C451.353 673.599 465.794 679.019 484.656 678.758C506.054 678.389 516.221 669.492 516.822 660.747C517.255 654.607 512.648 647.701 501.649 645.552L501.632 645.553ZM501.473 758.037C503.4 753.213 509.548 755.936 509.143 760.112C509.016 761.413 504.399 777.076 496.019 791.211C496.501 793.914 498.177 799.447 504.042 799.1L504.143 799.094C508.746 798.771 513.535 795.723 517.994 790.259C527.204 778.966 535 756.553 531.639 731.9C528.233 706.91 518.453 687.558 513.458 678.966C507.523 682.995 499.292 685.909 488.357 686.555C487.182 686.625 485.989 686.67 484.761 686.684C466.849 686.939 452.644 682.503 444.186 674.429C438.357 677.099 418.611 686.9 411.029 700.625C404.375 712.679 402.833 723.29 406.912 729.018C408.696 731.509 411.645 732.755 414.238 732.297C417.345 731.775 418.422 730.054 420.595 726.231C422.812 722.294 425.584 717.412 432.306 714.215C436.48 712.243 440.74 712.575 443.714 715.113C448.137 718.911 448.679 726.489 445.304 737.639C441.1 751.553 431.624 759.513 424.71 765.333C421.705 767.853 419.104 770.037 417.753 772.002C416.23 774.206 416.496 780.406 420 784.435C424.239 789.283 431.84 789.333 441.363 784.609C466.338 772.182 475.099 744.587 475.254 744.341C478.022 740.102 483.873 742.386 482.855 746.674C482.19 749.47 475.932 768.367 457.673 783.366C455.943 787.087 453.056 795.46 455.538 800.717C456.722 803.235 459.133 804.851 462.87 805.661C482.75 810.008 496.178 771.296 501.464 758.038L501.473 758.037Z" fill="#133050"/>
</g>
<path d="M295.43 967.647C421.02 967.647 522.831 953.081 522.831 935.111C522.831 917.142 421.02 902.575 295.43 902.575C169.839 902.575 68.0283 917.142 68.0283 935.111C68.0283 953.081 169.839 967.647 295.43 967.647Z" fill="#133050"/>
<path d="M479.234 855.586C445.261 826.458 393.379 839.708 393.379 839.708L383.539 830.251L368.94 821.276L369.328 818.507C369.328 818.507 373.998 816.919 375.231 806.89C376.464 796.861 373.049 789.935 361.229 785.095C349.41 780.255 330.656 776.677 330.656 776.677C330.656 776.677 309.938 775.037 299.112 782.95C292.006 767.747 261.201 772.661 261.201 772.661C261.201 772.661 242.792 777.716 231.405 783.47C220.019 789.23 217.165 796.401 219.204 806.303C221.237 816.206 226.018 817.416 226.018 817.416L226.631 820.148L212.801 830.251L203.753 840.458C203.753 840.458 150.967 831.364 119.445 863.091C85.8088 896.941 115.172 929.373 115.172 929.373C115.172 929.373 129.203 944.933 152.798 949.179C176.393 953.425 183.917 950.997 234.364 947.56C262.247 945.66 284.191 931.222 298.484 915.96C313.561 932.387 339.256 949.253 371.48 948.889C422.04 948.318 429.735 950.136 452.912 944.042C476.088 937.94 488.835 921.319 488.835 921.319C488.835 921.319 515.5 886.66 479.256 855.586H479.234ZM294.853 805.806C298.469 813.341 305.32 816.139 305.32 816.139C305.32 816.139 303.139 822.241 299.829 829.976C294.024 819.74 289.623 809.993 289.623 809.993C289.623 809.993 292.193 808.642 294.853 805.806Z" fill="#F9C941"/>
<path d="M268.928 588.453C268.928 588.453 263.638 629.682 263.235 661.001C262.831 692.327 267.71 768.912 267.71 768.912C267.71 768.912 268.524 785.281 265.267 789.326C262.009 793.365 252.252 798.828 243.301 793.572C234.35 788.317 236.591 758.008 236.591 758.008C236.591 758.008 230.285 705.867 232.729 650.697C235.172 595.528 239.655 594.533 239.655 594.533L268.935 588.453H268.928Z" fill="#FF6E53"/>
<path d="M308.168 593.672C308.168 593.672 316.745 634.351 319.666 665.536C322.588 696.729 323.865 773.463 323.865 773.463C323.865 773.463 324.366 789.846 327.937 793.617C331.508 797.388 341.677 802.05 350.172 796.104C358.675 790.158 354.005 760.116 354.005 760.116C354.005 760.116 356.105 707.641 349.246 652.843C342.387 598.044 337.829 597.406 337.829 597.406L308.16 593.664L308.168 593.672Z" fill="#FF6E53"/>
<path d="M436.811 847.346C427.106 845.758 418.402 849.529 417.363 855.772C416.325 862.022 423.348 868.376 433.046 869.965C442.744 871.554 451.455 867.783 452.494 861.532C453.532 855.282 446.509 848.927 436.811 847.339V847.346Z" fill="white"/>
<path d="M150.535 856.44C141.345 859.921 135.742 867.538 138.013 873.454C140.284 879.37 149.571 881.345 158.761 877.863C167.951 874.382 173.555 866.766 171.283 860.849C169.012 854.933 159.725 852.958 150.535 856.44Z" fill="white"/>
<path d="M230.472 111.131C171.514 111.131 53.3682 162.27 53.3682 296.156C53.3682 393.081 138.999 503.962 144.61 526.276C150.228 548.591 198.3 640.988 238.66 640.988C279.021 640.988 281.121 636.103 303.931 639.941C326.742 643.779 347.796 646.563 364.293 638.894C380.79 631.226 408.98 605.304 451.089 526.276C493.198 447.248 529.233 335.907 508.873 240.37C488.521 144.833 394.47 125.31 394.47 125.31L358.906 122.058L230.464 111.131H230.472Z" fill="#FF6E53"/>
<path d="M468.873 120.893C468.873 120.893 437.052 99.2762 394.472 92.9961C351.892 86.7234 331.54 89.9748 331.54 89.9748C331.54 89.9748 310.605 86.9536 295.863 88.8688C294.145 89.0915 292.389 89.3067 290.626 89.522C297.343 55.9615 289.199 23.9599 289.199 23.9599L267.913 30.2325C267.913 30.2325 276.004 56.7707 276.938 90.9547C268.458 91.7193 260.957 92.135 257.154 91.8306C227.769 89.4849 210.36 75.5589 173.167 76.0266C135.967 76.4942 101.112 101.073 101.112 101.073C101.112 101.073 104.796 116.765 116.025 125.131C127.255 133.497 139.71 135.42 139.71 135.42C139.71 135.42 154.623 124.441 180.594 118.161C206.565 111.888 231.482 110.493 231.482 110.493C231.482 110.493 236.338 156.688 277.282 178.542C318.226 200.388 336.008 199.928 336.008 199.928C336.008 199.928 360.103 164.133 359.871 143.675C359.64 123.216 358.235 120.663 358.235 120.663C358.235 120.663 373.679 119.037 401.517 127.871C429.356 136.704 433.802 138.798 433.802 138.798C433.802 138.798 444.097 139.725 456.963 131.59C469.829 123.454 468.895 120.9 468.895 120.9L468.873 120.893Z" fill="#13A5A5"/>
<path d="M126.716 216.133C119.94 213.438 111.803 240.363 120.926 242.285C130.048 244.2 137.243 220.32 126.716 216.133Z" fill="#F9C941"/>
<path d="M102.972 314.521C93.7596 313.83 93.7297 347.762 105.893 345.899C118.057 344.035 109.166 314.981 102.972 314.521Z" fill="#F9C941"/>
<path d="M155.138 298.36C163.447 299.986 163.327 273.953 157.014 272.906C150.782 271.874 146.837 296.735 155.138 298.36Z" fill="#F9C941"/>
<path d="M124.168 378.865C116.666 381.263 127.328 415.477 138.379 409.895C149.436 404.312 133.993 375.725 124.168 378.865Z" fill="#F9C941"/>
<path d="M212.781 518.823C204.577 522.55 216.995 548.108 225.587 543.929C234.186 539.742 218.922 516.032 212.781 518.823Z" fill="#F9C941"/>
<path d="M249.719 565.152C243.025 568.032 262.353 599.321 272.53 593.048C282.706 586.776 260.246 560.624 249.719 565.152Z" fill="#F9C941"/>
<path d="M354.999 608.556C361.141 614.487 373.244 592.165 369.389 588.854C363.307 583.636 348.857 602.624 354.999 608.556Z" fill="#F9C941"/>
<path d="M410.85 533.343C404.97 530.775 397.05 547.87 402.542 551.589C408.041 555.308 415.647 535.436 410.85 533.343Z" fill="#F9C941"/>
<path d="M431.738 216.898C420.979 221.314 427.524 249.553 436.767 247.348C446.009 245.136 440.428 213.327 431.738 216.898Z" fill="#F9C941"/>
<path d="M403.018 161.453C397.519 168.424 413.194 184.347 419.978 178.423C426.762 172.492 406.432 157.118 403.018 161.453Z" fill="#F9C941"/>
<path d="M192.339 172.729C181.012 168.981 177.366 191.094 182.984 192.95C188.595 194.813 195.85 173.887 192.339 172.729Z" fill="#F9C941"/>
<path d="M110.39 314.068C108.037 311.915 104.854 310.371 101.529 310.015C100.849 309.941 100.072 310.312 99.4146 310.646C98.0174 311.344 97.0088 312.903 96.2168 314.209C95.2381 315.827 94.4984 317.743 93.8708 319.524C92.7351 322.768 92.1673 326.391 92.1374 329.82C92.0926 335.833 94.2892 342.076 98.6301 346.359C100.969 348.668 104.338 350.976 107.79 350.219C111.287 349.447 112.691 346.196 113.812 343.175C116.181 336.776 117.72 329.464 115.665 322.768C114.664 319.502 112.93 316.392 110.383 314.068H110.39ZM107.977 336.969C107.603 338.29 107.163 339.597 106.684 340.888C106.595 341.141 106.229 342.024 105.997 342.573C105.698 342.395 105.377 342.217 105.317 342.173C104.577 341.653 103.912 341 103.315 340.317C100.677 337.31 99.6537 333.079 99.6537 329.197C99.6537 326.309 100.281 323.614 100.969 320.823C101.275 319.584 101.753 318.203 102.127 316.815C102.209 316.859 102.269 316.904 102.358 316.948C103.18 317.342 103.942 317.832 104.615 318.44C106.064 319.762 107.245 321.476 108.014 323.273C109.882 327.616 109.24 332.552 107.984 336.961L107.977 336.969Z" fill="#133050"/>
<path d="M125.99 211.256C125.407 211.323 122.553 213.394 121.672 214.151C119.639 215.91 117.966 218.598 116.815 221.003C114.409 226.036 113.214 231.766 113.797 237.334C114.096 240.214 114.544 243.844 116.673 246.012C119.654 249.04 123.771 247.125 126.192 244.512C130.226 240.155 132.513 234.61 133.133 228.753C133.462 225.694 133.223 222.547 132.49 219.555C131.967 217.402 128.433 209.601 125.99 211.249V211.256ZM123.211 237C122.755 237.735 122.277 238.44 121.709 239.093C121.552 239.271 121.38 239.435 121.223 239.613C121.126 239.308 121.037 239.034 121.014 238.93C120.797 237.943 120.633 236.963 120.558 235.961C120.267 231.974 120.925 227.988 122.479 224.306C123.196 222.606 124.115 221.07 125.094 219.548C125.168 219.726 125.265 219.919 125.325 220.097C125.908 221.975 126.207 223.801 126.244 225.761C126.311 229.71 125.31 233.615 123.218 237.007L123.211 237Z" fill="#133050"/>
<path d="M149.451 299.793C151.663 302.718 155.122 303.683 158.499 302.131C163.722 299.734 166.285 293.743 166.837 288.376C167.159 285.258 166.658 282.029 165.754 279.045C165.231 277.33 164.551 275.668 163.819 274.034C163.072 272.349 160.957 268.653 160.322 268.059C158.327 266.181 155.279 267.829 153.673 269.209C151.685 270.917 149.959 273.025 148.637 275.282C145.686 280.322 145.028 286.424 146.194 292.088C146.747 294.768 147.778 297.603 149.444 299.808L149.451 299.793ZM154.547 278.154C155.033 277.174 155.593 276.269 156.221 275.415C156.766 276.603 157.446 277.761 157.917 278.904C158.753 280.938 159.463 283.15 159.65 285.34C159.941 288.688 159.276 292.296 156.781 294.76C156.512 295.027 155.675 295.926 155.272 295.836C155.421 295.866 154.965 295.324 154.831 295.102C153.777 293.305 153.127 291.241 152.776 289.193C152.149 285.466 152.866 281.517 154.547 278.147V278.154Z" fill="#133050"/>
<path d="M193.204 168.149C188.654 167.058 181.242 173.961 179.09 177.77C176.191 182.892 175.736 189.32 177.708 194.843C178.47 196.981 180.33 197.991 182.572 197.582C188.25 196.558 193.6 192.609 196.103 187.412C197.515 184.488 198.269 181.251 198.068 178C197.866 174.644 197.014 169.062 193.204 168.149ZM190.163 179.826C190.148 180.056 190.126 180.286 190.103 180.516C190.088 180.605 190.051 180.806 190.021 180.954C189.901 181.548 189.745 182.134 189.55 182.713C189.453 183.003 189.356 183.292 189.236 183.567C189.446 183.077 189.244 183.508 189.124 183.745C188.9 184.191 188.646 184.621 188.377 185.037C188.228 185.267 188.056 185.49 187.907 185.72C187.892 185.742 187.907 185.727 187.899 185.742C187.869 185.772 187.869 185.772 187.809 185.839C187.436 186.247 187.07 186.655 186.659 187.041C186.457 187.234 186.248 187.412 186.039 187.591C185.994 187.628 185.897 187.702 185.807 187.761C185.359 188.051 184.888 188.288 184.432 188.548V188.526C184.41 187.947 184.41 187.368 184.447 186.796C184.462 186.514 184.492 186.24 184.515 185.957C184.522 185.898 184.529 185.831 184.552 185.735C184.664 185.171 184.783 184.606 184.94 184.05C185.097 183.493 185.284 182.951 185.471 182.402C185.501 182.305 185.546 182.194 185.568 182.127C185.665 181.912 185.762 181.697 185.874 181.489C186.293 180.657 186.793 179.878 187.331 179.121C187.391 179.046 187.458 178.957 187.526 178.876C187.675 178.705 187.824 178.534 187.974 178.363C188.317 177.985 188.676 177.629 189.05 177.28C189.341 177.012 189.64 176.76 189.939 176.5C189.984 176.678 190.036 176.857 190.073 177.042C190.096 177.153 190.103 177.191 190.118 177.243C190.155 177.554 190.185 177.866 190.193 178.17C190.223 178.72 190.215 179.269 190.193 179.811L190.163 179.826Z" fill="#133050"/>
<path d="M413.343 527.442C408.793 526.351 401.382 533.254 399.23 537.062C396.331 542.184 395.875 548.613 397.848 554.136C398.61 556.274 400.47 557.283 402.712 556.875C408.39 555.851 413.739 551.901 416.242 546.705C417.655 543.78 418.409 540.544 418.207 537.292C418.006 533.937 417.154 528.355 413.343 527.442ZM410.303 539.119C410.288 539.349 410.265 539.579 410.243 539.809C410.228 539.898 410.191 540.098 410.161 540.247C410.041 540.841 409.884 541.427 409.69 542.006C409.593 542.296 409.496 542.585 409.376 542.86C409.585 542.37 409.384 542.793 409.264 543.038C409.04 543.483 408.786 543.914 408.517 544.33C408.368 544.56 408.196 544.782 408.046 545.013C408.031 545.035 408.046 545.02 408.039 545.035C408.009 545.065 408.009 545.065 407.949 545.131C407.576 545.54 407.209 545.948 406.798 546.334C406.597 546.527 406.388 546.705 406.178 546.883C406.134 546.92 406.036 546.995 405.947 547.054C405.498 547.344 405.028 547.581 404.572 547.841V547.819C404.55 547.24 404.55 546.661 404.587 546.089C404.602 545.807 404.632 545.532 404.654 545.25C404.662 545.191 404.669 545.124 404.692 545.027C404.804 544.463 404.923 543.899 405.08 543.342C405.237 542.786 405.424 542.244 405.611 541.694C405.64 541.598 405.685 541.487 405.708 541.42C405.805 541.205 405.902 540.989 406.014 540.781C406.432 539.95 406.933 539.171 407.471 538.413C407.531 538.339 407.598 538.25 407.665 538.168C407.815 537.998 407.964 537.827 408.113 537.656C408.457 537.278 408.816 536.921 409.189 536.572C409.481 536.305 409.78 536.053 410.078 535.793C410.123 535.971 410.176 536.149 410.213 536.335C410.235 536.446 410.243 536.483 410.258 536.535C410.295 536.847 410.318 537.159 410.332 537.463C410.362 538.013 410.355 538.562 410.332 539.104L410.303 539.119Z" fill="#133050"/>
<path d="M136.69 378.687C133.657 376.111 129.674 373.58 125.67 372.786C123.749 372.407 121.904 372.296 120.918 373.224C116.099 377.745 116.539 386.422 117.57 392.368C118.691 398.789 121.792 404.862 126.252 409.62C128.643 412.174 131.684 414.772 135.158 415.64C139.215 416.657 143.19 414.653 144.968 410.941C148.33 403.911 147.113 394.929 143.922 388.093C142.256 384.522 139.701 381.233 136.69 378.68V378.687ZM138.289 404.112C138.147 405.099 137.856 406.524 137.527 407.193C137.422 407.4 137.273 407.527 137.198 407.601C137.049 407.564 136.832 407.534 136.817 407.519C134.77 406.421 133.156 405.01 131.572 403.258C128.546 399.903 126.544 395.664 125.513 391.262C124.907 388.679 124.728 386.096 124.9 383.394C124.937 382.77 125.049 382.161 125.132 381.545C126.693 382.265 128.24 383.008 129.697 384.025C131.602 385.353 133.35 387.128 134.658 389.043C137.654 393.43 139.029 398.841 138.281 404.119L138.289 404.112Z" fill="#133050"/>
<path d="M262.621 562.65C259.042 560.891 254.56 559.406 250.48 559.614C248.523 559.711 246.707 560.059 245.975 561.195C242.418 566.748 244.989 575.062 247.462 580.57C250.129 586.523 254.634 591.653 260.141 595.179C263.092 597.072 266.678 598.846 270.257 598.846C274.441 598.846 277.803 595.929 278.603 591.898C280.127 584.267 276.727 575.856 271.946 569.999C269.45 566.948 266.163 564.38 262.614 562.643L262.621 562.65ZM270.466 590.079C270.421 590.309 270.309 590.465 270.25 590.554C270.093 590.554 269.876 590.576 269.861 590.569C267.605 589.997 265.692 589.032 263.727 587.718C259.969 585.202 256.98 581.587 254.896 577.563C253.67 575.203 252.856 572.746 252.363 570.081C252.251 569.472 252.206 568.849 252.131 568.232C253.82 568.544 255.501 568.893 257.167 569.524C259.341 570.348 261.478 571.64 263.219 573.176C267.201 576.695 269.876 581.609 270.459 586.909C270.571 587.904 270.631 589.352 270.481 590.079H270.466Z" fill="#133050"/>
<path d="M228.909 524.413C227.281 521.362 224.778 518.712 221.819 516.901C219.473 515.468 215.319 513.575 212.233 513.375C210.866 513.286 209.655 514.28 208.744 515.275C204.874 519.462 205.539 526.915 206.861 532.007C208.228 537.27 211.277 542.31 215.438 545.851C217.994 548.026 221.034 550.142 224.539 550.097C228.304 550.045 231.233 547.136 231.965 543.587C232.615 540.455 232.294 537.151 231.868 534.011C231.412 530.649 230.516 527.412 228.909 524.406V524.413ZM223.709 541.293C223.709 541.293 223.709 541.316 223.702 541.331C223.291 541.115 222.88 540.878 222.499 540.625C222.297 540.492 222.103 540.351 221.909 540.21C221.46 539.846 221.027 539.467 220.609 539.074C219.891 538.398 219.226 537.678 218.606 536.921C218.576 536.884 218.606 536.921 218.584 536.899C218.457 536.728 218.33 536.55 218.203 536.372C217.867 535.889 217.545 535.392 217.239 534.887C216.761 534.086 216.342 533.254 215.946 532.408C215.887 532.259 215.67 531.777 215.625 531.651C215.408 531.101 215.214 530.545 215.042 529.98C214.714 528.911 214.475 527.835 214.273 526.736C214.258 526.662 214.258 526.685 214.258 526.655C214.22 526.336 214.191 526.009 214.161 525.69C214.123 525.17 214.101 524.643 214.093 524.124C214.093 523.782 214.131 523.448 214.138 523.106C214.25 523.121 214.4 523.136 214.519 523.151C214.676 523.188 214.863 523.225 214.908 523.24C215.11 523.285 215.304 523.337 215.498 523.396C215.685 523.448 215.864 523.515 216.051 523.582C216.111 523.611 216.477 523.76 216.567 523.804C217 524.027 217.418 524.265 217.822 524.532C217.994 524.643 218.173 524.769 218.337 524.888C218.419 524.955 218.576 525.081 218.614 525.118C219.017 525.504 219.436 525.875 219.817 526.291C219.959 526.447 220.093 526.603 220.235 526.766C220.317 526.863 220.332 526.87 220.325 526.848C220.347 526.885 220.377 526.929 220.459 527.056C221.841 529.142 222.462 530.634 223.037 533.113C223.552 535.347 223.732 537.322 223.754 539.92C223.754 540.38 223.717 540.841 223.717 541.301L223.709 541.293Z" fill="#133050"/>
<path d="M435.024 213.98C434.075 213.342 432.753 212.993 431.624 213.023C428.972 213.097 426.469 216.111 425.289 217.959C423.593 220.624 422.382 223.772 421.807 226.875C420.626 233.281 421.762 239.798 425.169 245.396C426.813 248.09 428.965 250.711 431.565 252.552C434.733 254.801 438.61 254.199 441.061 251.245C445.462 245.93 447.031 238.403 446.082 231.7C445.081 224.596 440.994 218.019 435.024 213.98ZM436.361 243.362C436.1 243.903 435.659 244.586 435.323 245.173C433.746 243.703 432.469 242.07 431.43 240.177C429.45 236.547 428.613 232.138 429.249 228.047C429.592 225.828 430.399 223.846 431.37 221.864C434.038 224.239 436.175 226.993 437.236 230.445C438.528 234.647 438.282 239.368 436.361 243.354V243.362Z" fill="#133050"/>
<path d="M420.912 164.809C417.198 161.067 412.476 158.291 407.426 156.769C404.377 155.849 399.64 154.594 397.526 157.942C396.809 159.078 396.861 162.433 396.951 163.435C397.175 166.011 398.004 168.557 399.192 170.844C401.389 175.075 404.945 178.802 409.174 181.08C413.545 183.434 419.873 184.785 423.855 180.91C426.224 178.609 426.837 175.142 425.798 172.061C424.857 169.263 422.974 166.895 420.912 164.816V164.809ZM417.819 175.105C417.699 175.179 417.692 175.157 417.766 175.09C417.594 175.142 417.415 175.194 417.393 175.194C417.37 175.194 417.393 175.194 417.37 175.201C417.041 175.201 416.339 175.29 415.928 175.194C415.898 175.186 415.936 175.194 415.898 175.179C415.532 175.09 415.166 175.016 414.8 174.912C414.613 174.852 414.426 174.793 414.24 174.726C414.15 174.696 413.433 174.392 413.463 174.422C413.321 174.355 413.164 174.281 413.164 174.273C412.835 174.11 412.514 173.939 412.193 173.761C411.692 173.479 411.206 173.182 410.728 172.855C410.564 172.744 410.399 172.618 410.235 172.499C410.213 172.477 409.832 172.18 409.772 172.128C408.808 171.311 407.949 170.406 407.134 169.456C407.075 169.381 407.112 169.433 407.082 169.396C406.85 169.084 406.626 168.773 406.41 168.454C406.088 167.978 405.789 167.481 405.506 166.984C405.222 166.486 404.968 165.974 404.706 165.462C404.624 165.306 404.549 165.143 404.467 164.987C405.334 165.224 406.2 165.469 407.037 165.796C407.209 165.863 407.396 165.93 407.568 166.004C407.695 166.071 407.829 166.137 407.874 166.16C408.442 166.427 408.995 166.709 409.54 167.013C410.534 167.563 411.49 168.171 412.409 168.84C412.484 168.891 412.596 168.988 412.693 169.062C412.843 169.181 412.992 169.3 413.134 169.426C413.612 169.827 414.068 170.25 414.516 170.68C415.278 171.423 415.981 172.217 416.646 173.041C416.758 173.19 416.914 173.397 416.952 173.449C417.086 173.65 417.213 173.85 417.34 174.058C417.475 174.281 417.594 174.518 417.706 174.756C417.736 174.845 417.774 174.956 417.804 175.053C417.804 175.053 417.811 175.053 417.819 175.045C417.819 175.053 417.819 175.06 417.819 175.068C417.819 175.068 417.819 175.068 417.811 175.068C417.811 175.082 417.811 175.09 417.819 175.097V175.105Z" fill="#133050"/>
<path d="M417.767 175.086C417.767 175.086 417.791 175.086 417.816 175.069V175.053C417.799 175.069 417.791 175.069 417.775 175.086H417.767Z" fill="#133050"/>
<path d="M372.661 583.792C371.473 583.161 368.11 583.435 367.109 583.591C364.539 583.992 362.036 584.979 359.825 586.308C355.723 588.773 352.219 592.551 350.216 596.886C348.147 601.377 347.213 607.739 351.367 611.428C353.84 613.626 357.359 613.997 360.378 612.764C363.12 611.644 365.383 609.617 367.326 607.435C370.83 603.508 373.303 598.638 374.499 593.531C375.223 590.443 376.165 585.67 372.661 583.792ZM365.413 593.754C365.361 593.932 365.301 594.117 365.241 594.288C365.182 594.422 365.129 594.555 365.107 594.607C364.875 595.186 364.629 595.758 364.36 596.315C363.874 597.332 363.321 598.326 362.716 599.284C362.671 599.358 362.582 599.477 362.514 599.581C362.402 599.737 362.298 599.893 362.178 600.041C361.805 600.538 361.416 601.028 361.005 601.496C360.31 602.298 359.556 603.047 358.779 603.767C358.637 603.894 358.442 604.057 358.39 604.094C358.203 604.243 358.009 604.384 357.807 604.517C357.591 604.666 357.359 604.799 357.135 604.926C357.053 604.963 356.941 605.007 356.844 605.044C356.844 605.044 356.844 605.052 356.851 605.059C356.844 605.059 356.836 605.059 356.829 605.059C356.829 605.059 356.829 605.059 356.829 605.052C356.821 605.052 356.806 605.052 356.799 605.059C356.717 604.94 356.739 604.933 356.814 605.007C356.754 604.844 356.687 604.666 356.679 604.643C356.672 604.621 356.679 604.643 356.664 604.621C356.634 604.295 356.507 603.612 356.575 603.188C356.575 603.159 356.582 603.196 356.59 603.159C356.657 602.788 356.702 602.424 356.784 602.053C356.829 601.86 356.881 601.674 356.933 601.481C356.956 601.392 357.21 600.665 357.187 600.694C357.247 600.546 357.314 600.39 357.314 600.382C357.456 600.048 357.606 599.714 357.763 599.388C358.009 598.876 358.278 598.371 358.577 597.881C358.682 597.71 358.794 597.539 358.898 597.369C358.921 597.346 359.19 596.953 359.242 596.886C359.996 595.877 360.848 594.964 361.752 594.095C361.82 594.028 361.775 594.073 361.812 594.036C362.103 593.783 362.402 593.538 362.709 593.308C363.164 592.959 363.643 592.625 364.128 592.313C364.614 592.002 365.107 591.712 365.608 591.415C365.764 591.326 365.914 591.237 366.071 591.148C365.891 592.024 365.697 592.9 365.436 593.754H365.413Z" fill="#133050"/>
<path d="M356.815 605.057C356.815 605.057 356.832 605.057 356.832 605.049C356.815 605.032 356.807 605.024 356.799 605.007C356.799 605.032 356.807 605.032 356.815 605.057Z" fill="#133050"/>
<path d="M214.191 372.466C225.331 369.586 237.345 370.796 247.327 374.426C261.844 362.757 268.658 334.734 266.954 304.18C264.75 264.792 255.074 233.295 230.097 234.676C203.252 236.153 198.71 262.981 201.213 307.81C202.744 335.283 204.156 360.329 214.191 372.466Z" fill="white"/>
<path d="M214.855 374.849C222.581 372.919 230.702 372.867 238.495 374.493C240.355 374.879 242.201 375.354 244.024 375.918C245.847 376.482 247.371 377.418 249.097 376.171C251.099 374.716 252.832 372.734 254.372 370.818C262.112 361.146 265.878 348.705 267.858 336.679C270.293 321.87 270.039 306.852 268.493 291.969C267.208 279.55 265.153 266.886 260.282 255.305C256.718 246.828 251.256 238.299 242.499 234.431C234.58 230.927 224.814 231.603 217.119 235.418C199.576 244.118 198.38 268.689 198.156 285.525C197.962 300.379 198.926 315.33 200.189 330.124C201.264 342.773 202.535 356.351 208.318 367.886C209.453 370.158 210.843 372.251 212.442 374.226C214.452 376.705 217.956 373.186 215.961 370.729C209.67 362.987 207.839 351.934 206.494 342.373C204.649 329.226 204.036 315.849 203.454 302.599C202.96 291.486 202.781 280.247 204.133 269.187C205.06 261.622 206.793 253.665 211.104 247.229C218.778 235.767 236.545 233.577 246.616 243.124C252.937 249.114 256.344 257.681 258.72 265.854C261.978 277.078 263.434 288.777 264.241 300.402C265.145 313.474 264.906 326.695 262.291 339.574C260.259 349.573 256.919 360.129 250.24 368.094C248.835 369.772 247.281 371.308 245.585 372.697C246.392 372.481 247.199 372.273 248.006 372.058C237.008 368.131 224.912 367.248 213.54 370.098C210.432 370.878 211.747 375.651 214.863 374.872L214.855 374.849Z" fill="#133050"/>
<path d="M353.683 375.28C363.56 369.913 375.081 368.762 385.69 370.395C398.056 357.412 403.779 331.29 402.195 303.014C399.991 263.627 390.315 232.13 365.338 233.511C338.493 234.988 333.95 261.815 336.453 306.644C338.187 337.599 339.748 365.488 353.683 375.28Z" fill="white"/>
<path d="M354.938 377.418C361.909 373.706 369.724 372.08 377.606 372.192C379.377 372.214 381.148 372.318 382.911 372.511C384.958 372.726 386.4 373.238 387.947 371.62C389.867 369.623 391.518 367.277 392.975 364.932C399.931 353.723 402.852 340.257 404.19 327.311C405.736 312.383 404.802 297.217 402.695 282.385C401.022 270.59 398.392 258.408 392.519 247.897C388.134 240.043 381.267 233.139 372.07 231.477C363.747 229.97 354.445 231.9 347.795 237.193C341.086 242.53 337.694 250.918 335.886 259.039C333.286 270.686 333.166 282.853 333.472 294.723C333.861 309.695 334.638 324.839 336.551 339.708C338 350.991 340.032 363.558 347.392 372.711C348.849 374.523 350.537 376.059 352.427 377.418C355.027 379.288 357.515 374.998 354.938 373.149C347.631 367.901 344.919 357.998 343.185 349.692C340.593 337.28 339.965 324.49 339.24 311.863C338.553 299.822 337.94 287.745 338.68 275.689C339.203 267.212 340.241 258.223 343.895 250.436C346.63 244.601 350.978 239.709 357.217 237.549C364.023 235.188 371.905 235.225 378.144 239.071C385.152 243.398 389.299 251.326 392.034 258.794C395.874 269.261 397.712 280.425 398.825 291.471C400.163 304.744 400.566 318.188 398.721 331.431C397.181 342.469 394.275 353.856 388.119 363.313C386.878 365.221 385.496 366.995 383.935 368.651C384.741 368.436 385.548 368.228 386.355 368.012C374.737 366.29 362.88 367.582 352.427 373.149C349.603 374.656 352.114 378.925 354.938 377.418Z" fill="#133050"/>
<path d="M276.885 371.613C283.378 371.167 288.339 366.914 292.157 361.985C295.153 358.117 298.321 352.253 303.439 350.932C309.64 349.328 314.713 356.039 316.066 361.228C317.642 367.285 315.722 373.454 311.426 377.945C309.087 380.387 306.151 382.488 302.953 383.653C300.241 384.641 296.58 385.272 294.279 383.097C291.955 380.907 288.429 384.396 290.76 386.593C296.222 391.745 304.649 389.139 310.148 385.435C316.38 381.241 320.907 374.842 321.542 367.278C322.148 360.099 319.017 352.565 313.003 348.408C309.865 346.24 305.89 345.171 302.132 346.166C299.001 346.997 296.341 349.098 294.182 351.436C289.251 356.781 285.194 366.105 276.9 366.669C273.718 366.884 273.695 371.836 276.9 371.613H276.885Z" fill="#133050"/>
<path d="M222.118 271.213C223.852 273.5 225.249 275.957 226.369 278.585C225.869 277.404 225.368 276.224 224.86 275.036C226.056 277.983 226.855 281.019 227.303 284.167C227.124 282.853 226.945 281.539 226.773 280.218C227.176 283.506 227.154 286.758 226.736 290.046C226.915 288.732 227.094 287.418 227.266 286.097C226.362 292.421 224.21 298.442 222.604 304.603C220.691 311.967 219.593 319.628 219.197 327.222C218.517 340.42 220.273 355.474 228.275 366.476C230.613 369.697 233.221 372.207 237.203 373.298C240.782 374.278 245.541 373.832 248.717 371.798C251.907 369.757 254.716 366.713 255.583 362.927C256.427 359.253 256.397 354.68 254.074 351.488C252.676 349.573 251.541 347.532 250.584 345.364C251.085 346.544 251.586 347.725 252.094 348.912C250.54 345.201 249.591 341.318 249.023 337.347C249.202 338.661 249.382 339.975 249.553 341.296C248.605 334.058 248.851 326.724 249.793 319.501C249.613 320.815 249.434 322.129 249.262 323.451C250.876 311.841 255.411 300.973 256.704 289.296C257.944 278.072 254.791 265.275 247.91 256.218C245.467 253.004 243.046 250.51 238.981 249.396C235.402 248.416 230.643 248.862 227.468 250.896C224.277 252.937 221.468 255.981 220.601 259.767C219.772 263.397 219.742 268.088 222.111 271.206L222.118 271.213Z" fill="#133050"/>
<path d="M357.247 267.316C358.98 269.602 360.377 272.06 361.498 274.687C360.997 273.507 360.497 272.327 359.989 271.139C361.184 274.086 361.984 277.122 362.432 280.27C362.253 278.956 362.073 277.642 361.901 276.321C362.305 279.609 362.282 282.86 361.864 286.149C362.043 284.835 362.223 283.521 362.394 282.2C361.49 288.524 359.339 294.545 357.732 300.706C355.82 308.07 354.721 315.731 354.325 323.325C353.645 336.523 355.401 351.577 363.403 362.579C365.742 365.8 368.349 368.309 372.332 369.401C375.91 370.38 380.67 369.935 383.845 367.901C387.035 365.86 389.845 362.816 390.711 359.03C391.556 355.356 391.526 350.783 389.202 347.591C387.805 345.676 386.669 343.635 385.713 341.467C386.213 342.647 386.714 343.828 387.222 345.015C385.668 341.304 384.719 337.421 384.151 333.45C384.331 334.764 384.51 336.078 384.682 337.399C383.733 330.161 383.98 322.827 384.921 315.604C384.742 316.918 384.562 318.232 384.39 319.554C386.004 307.944 390.539 297.076 391.832 285.399C393.072 274.175 389.919 261.378 383.038 252.321C380.595 249.107 378.174 246.613 374.11 245.499C370.531 244.519 365.772 244.965 362.596 246.999C359.406 249.04 356.597 252.084 355.73 255.869C354.901 259.499 354.871 264.191 357.239 267.309L357.247 267.316Z" fill="#133050"/>
<path d="M225.331 481.121C229.956 477.491 235.455 475.323 241.036 473.608C246.789 471.834 252.632 470.312 258.467 468.835C270.698 465.74 283.078 463.127 295.586 461.404C319.248 458.146 343.575 458.168 366.863 463.899C379.43 466.994 391.527 471.738 402.659 478.322C404.041 479.139 405.297 477.001 403.914 476.184C360.52 450.515 307.689 454.13 260.514 465.769C253.768 467.432 247.014 469.169 240.371 471.218C234.349 473.074 228.544 475.457 223.568 479.369C222.313 480.356 224.084 482.093 225.331 481.121Z" fill="#133050"/>
<path d="M204.433 229.332C204.597 228.626 204.784 227.936 205.016 227.246C205.113 226.964 205.21 226.681 205.322 226.399C205.382 226.229 205.449 226.065 205.516 225.902C205.397 226.184 205.389 226.206 205.501 225.969C206.062 224.774 206.704 223.63 207.452 222.539C207.623 222.294 207.795 222.049 207.975 221.804C207.586 222.331 208.199 221.522 208.281 221.426C208.744 220.876 209.23 220.342 209.745 219.83C210.171 219.407 210.612 218.991 211.068 218.598C211.344 218.36 211.621 218.13 211.905 217.9C211.396 218.308 212.293 217.618 212.308 217.61C213.391 216.838 214.534 216.155 215.722 215.561C216.044 215.398 216.372 215.25 216.701 215.094C217.299 214.819 216.612 215.116 216.978 214.982C217.598 214.752 218.218 214.53 218.86 214.337C219.555 214.129 220.25 213.958 220.96 213.817C221.251 213.758 221.55 213.706 221.849 213.661C222.267 213.587 221.408 213.683 222.111 213.624C223.56 213.505 224.995 213.475 226.444 213.602C228.454 213.78 230.18 211.768 230.18 209.89C230.18 207.737 228.461 206.357 226.444 206.178C213.302 205.02 200.197 214.626 197.238 227.357C196.782 229.309 197.843 231.373 199.846 231.922C201.728 232.434 203.985 231.291 204.441 229.332H204.433Z" fill="#133050"/>
<path d="M355.2 212.904C359.182 211.1 364.136 212.028 367.976 213.995C372.526 216.326 376.172 219.896 379.714 223.512C383.068 226.941 388.351 221.693 384.996 218.263C380.715 213.891 376.083 209.467 370.404 206.95C364.285 204.233 357.613 203.699 351.434 206.505C349.596 207.336 349.148 209.979 350.097 211.582C351.203 213.453 353.362 213.75 355.207 212.911L355.2 212.904Z" fill="#133050"/>
<path d="M270.653 387.424C265.034 377.596 253.438 371.843 242.806 369.126C229.903 365.838 215.805 366.491 203.761 372.4C196.364 376.03 190.282 381.731 185.762 388.545C183.109 392.546 189.572 396.266 192.21 392.294C205.636 372.058 234.207 370.158 253.7 381.426C256.307 382.933 257.959 384.091 259.976 385.969C260.902 386.831 261.776 387.758 262.583 388.731C262.666 388.827 263.017 389.288 262.613 388.761C262.808 389.02 263.002 389.288 263.189 389.555C263.547 390.082 263.883 390.616 264.197 391.173C266.573 395.323 273.028 391.589 270.645 387.424H270.653Z" fill="#133050"/>
<path d="M420.24 386.259C414.621 376.43 403.026 370.677 392.394 367.96C379.491 364.672 365.392 365.325 353.348 371.234C345.951 374.864 339.869 380.565 335.349 387.38C332.697 391.381 339.16 395.1 341.797 391.128C355.223 370.893 383.794 368.992 403.287 380.261C405.895 381.768 407.546 382.926 409.563 384.804C410.49 385.665 411.364 386.593 412.171 387.565C412.253 387.662 412.604 388.122 412.201 387.595C412.395 387.855 412.589 388.122 412.776 388.389C413.135 388.916 413.471 389.451 413.785 390.007C416.161 394.157 422.616 390.423 420.233 386.259H420.24Z" fill="#133050"/>
<path d="M435.243 484.12C449.767 485.782 463.574 478.908 472.114 467.373C480.056 456.639 482.537 442.104 477.038 429.781C473.601 422.076 467.071 416.175 459.659 412.3C455.408 410.08 451.627 416.479 455.886 418.706C461.662 421.727 466.555 425.854 469.581 431.474C472.159 436.262 472.944 441.399 472.428 447.055C472.241 449.119 471.464 452.259 470.56 454.746C469.716 457.062 468.416 459.571 466.854 461.931C463.881 466.423 459.667 470.364 454.818 473.052C448.863 476.347 442.221 477.505 435.243 476.704C433.233 476.474 431.507 478.574 431.507 480.415C431.507 482.613 433.225 483.897 435.243 484.127V484.12Z" fill="#133050"/>
<path d="M136.361 451.635C128.568 462.317 126.125 476.666 130.571 489.189C134.523 500.324 143.571 509.448 155.794 510.591C163.43 511.303 170.991 508.312 177.163 504.058C178.821 502.922 179.576 500.807 178.5 498.981C177.544 497.348 175.056 496.501 173.39 497.652C168.735 500.851 163.408 503.264 157.924 503.264C153.672 503.264 149.339 501.72 146.111 499.144C138.363 492.96 135.151 482.731 135.943 472.962C136.458 466.645 139.028 460.558 142.801 455.384C143.989 453.758 143.078 451.249 141.464 450.307C139.581 449.208 137.541 450.01 136.354 451.635H136.361Z" fill="#133050"/>
<path d="M228.207 389.473C231.412 389.473 231.42 384.522 228.207 384.522C224.994 384.522 224.994 389.473 228.207 389.473Z" fill="#133050"/>
<path d="M209.124 399.153C212.33 399.153 212.337 394.209 209.124 394.209C205.912 394.209 205.912 399.153 209.124 399.153Z" fill="#133050"/>
<path d="M244.16 399.153C247.365 399.153 247.373 394.209 244.16 394.209C240.947 394.209 240.947 399.153 244.16 399.153Z" fill="#133050"/>
<path d="M380.94 386.355C384.145 386.355 384.153 381.412 380.94 381.412C377.727 381.412 377.727 386.355 380.94 386.355Z" fill="#133050"/>
<path d="M363.368 392.895C366.573 392.895 366.58 387.951 363.368 387.951C360.155 387.951 360.155 392.895 363.368 392.895Z" fill="#133050"/>
<path d="M397.862 392.895C401.067 392.895 401.074 387.951 397.862 387.951C394.649 387.951 394.649 392.895 397.862 392.895Z" fill="#133050"/>
<path d="M407.442 416.464L407.24 417.681C404.587 422.945 401.733 428.519 396.84 431.86C391.946 435.104 384.198 435.2 380.836 430.338C378.183 426.693 378.796 421.727 379.61 417.273L379.715 414.029C388.995 414.334 398.267 415.039 407.442 416.457V416.464Z" fill="white"/>
<path d="M379.715 414.037L379.61 417.281C378.183 422.648 375.224 427.71 370.637 430.85C366.049 433.99 359.624 434.8 354.835 431.964C351.062 429.737 348.82 425.075 349.433 420.926C349.739 419.916 350.046 418.899 350.352 417.889C350.422 417.82 350.456 417.753 350.456 417.689L350.352 414.245C360.139 413.836 369.927 413.74 379.715 414.044V414.037Z" fill="white"/>
<path d="M350.351 414.237L350.456 417.682C350.456 417.751 350.421 417.818 350.351 417.882C349.843 418.795 349.432 419.805 349.432 420.918C348.513 423.553 347.497 426.181 345.966 428.616C343.821 431.957 340.459 434.792 336.484 435.304C335.976 435.408 335.364 435.408 334.856 435.408C331.083 435.408 327.414 433.486 325.068 430.546C322.319 427.302 320.891 423.049 320.481 418.699L320.279 415.967C321.706 415.863 323.133 415.766 324.56 415.663C333.122 415.054 341.789 414.549 350.351 414.245V414.237Z" fill="white"/>
<path d="M320.278 415.959L320.48 418.691C319.763 422.336 319.053 425.884 317.215 429.121C315.377 432.261 312.426 434.896 308.757 435.401C304.372 435.906 300.397 433.27 297.035 430.435C294.689 428.408 292.447 425.773 291.737 422.937V422.737C291.737 421.727 291.842 420.814 291.842 419.797L291.737 417.971C301.219 417.362 310.797 416.553 320.278 415.944V415.959Z" fill="white"/>
<path d="M291.74 417.986L291.844 419.812C291.538 420.822 291.538 421.839 291.74 422.752V422.952C291.538 426.092 291.03 429.128 289.7 431.964C287.765 435.609 283.79 438.548 279.71 437.836C276.752 437.331 274.51 435.2 272.575 433.077C269.213 429.232 266.561 424.875 264.521 420.213V419.099C269.004 418.995 273.494 418.899 278.082 418.691C282.669 418.491 287.152 418.186 291.74 417.978V417.986Z" fill="white"/>
<path d="M264.52 420.213C265.334 425.988 264.52 432.573 259.828 436.01C255.442 439.15 247.694 440.567 242.8 437.932C236.584 434.592 237.398 426.285 236.584 420.918C237.705 420.814 238.825 420.614 239.946 420.51C248.105 419.701 256.256 419.396 264.512 419.092V420.205L264.52 420.213Z" fill="white"/>
<path d="M449.036 429.425C440.743 420.391 428.609 417.006 417.805 414.875C414.481 414.259 411.156 413.74 407.928 413.339C399.366 412.017 390.168 411.216 379.806 410.874C370.294 410.585 360.611 410.652 350.233 411.075C342.411 411.349 333.938 411.817 324.322 412.493L320.071 412.797C315.394 413.101 310.695 413.443 306.002 413.799C301.168 414.155 296.334 414.519 291.597 414.823C289.289 414.92 287.003 415.054 284.716 415.172C282.467 415.299 280.218 415.425 277.932 415.529C273.629 415.714 269.407 415.811 265.201 415.915L264.394 415.937C256.31 416.234 247.942 416.546 239.648 417.362C239.058 417.414 238.468 417.496 237.878 417.578C237.347 417.652 236.824 417.726 236.159 417.785C228.777 418.773 223.054 419.864 217.563 421.326C209.964 423.479 202.792 426.33 196.277 429.759C183.762 436.262 171.852 445.615 159.838 458.361C156.723 461.686 153.562 465.784 153.689 471.062C153.943 474.662 155.871 478.107 159.121 480.779C163.23 484.149 168.191 485.463 173.19 485.463C178.607 485.463 184.068 483.926 188.559 481.774C191.988 480.066 195.201 478.856 198.301 477.684C202.396 476.139 206.639 474.544 211.249 471.864C220.955 466.326 232.939 463.067 242.316 460.855L243.145 460.655C273.18 453.447 304.187 446.016 334.499 447.367C343.688 447.783 352.602 449.045 360.992 451.131C369.607 453.276 378.072 455.592 386.522 457.908C397.879 461.018 409.624 464.247 421.466 466.935C433.608 469.83 442.939 468.635 449.253 463.32C453.213 459.964 455.596 454.983 455.977 449.297C456.44 442.171 453.855 434.74 449.029 429.418L449.036 429.425ZM395.07 429.225C391.528 431.57 385.686 431.778 383.407 428.482C381.472 425.825 382.047 421.593 382.734 417.845C382.764 417.667 382.772 417.496 382.779 417.318C390.019 417.629 396.669 418.194 402.967 419.025C400.912 422.937 398.499 426.879 395.07 429.225ZM376.331 417.125C374.919 421.942 372.282 425.877 368.83 428.245C364.997 430.873 359.902 431.281 356.465 429.247C353.969 427.777 352.37 424.682 352.58 421.504L353.401 418.788C353.401 418.788 353.401 418.773 353.401 418.765C353.536 418.401 353.626 418.03 353.626 417.681C353.626 417.548 353.603 417.429 353.588 417.303C361.478 417.028 368.987 416.976 376.324 417.132L376.331 417.125ZM324.786 418.802C332.907 418.231 340.199 417.808 346.983 417.526C346.535 418.565 346.318 419.493 346.296 420.235C345.504 422.499 344.585 424.852 343.285 426.916C341.395 429.87 338.698 431.823 335.881 432.186C335.694 432.224 335.485 432.238 335.268 432.238C332.123 432.224 329.455 430.939 327.498 428.497C324.943 425.483 324.016 421.697 323.71 418.877L324.786 418.802ZM306.473 420.101C309.977 419.842 313.489 419.582 317.105 419.337C316.53 422.202 315.857 425.082 314.468 427.54C312.899 430.219 310.657 431.949 308.386 432.261C305.061 432.691 301.676 430.204 299.121 428.059C296.932 426.166 295.46 424.206 294.93 422.507C294.93 422.143 294.952 421.787 294.967 421.445C294.975 421.274 294.975 421.096 294.982 420.925C298.807 420.666 302.633 420.398 306.473 420.109V420.101ZM278.216 421.846C280.517 421.749 282.789 421.616 285.075 421.497C286.188 421.43 287.301 421.371 288.422 421.311C288.415 421.846 288.459 422.373 288.549 422.907C288.325 426.151 287.787 428.542 286.883 430.494C285.575 432.944 282.871 435.185 280.248 434.725C278.283 434.391 276.535 432.721 274.981 431.006C272.695 428.393 270.685 425.424 268.974 422.158C272.03 422.083 275.1 421.994 278.224 421.853L278.216 421.846ZM261.54 422.373C261.779 425.654 261.51 430.843 257.961 433.448C254.539 435.891 248.106 437.197 244.311 435.156C241.105 433.434 240.552 429.522 240.112 424.192C240.097 424.021 240.082 423.858 240.067 423.687C240.134 423.687 240.194 423.672 240.254 423.665C247.329 422.967 254.509 422.648 261.532 422.388L261.54 422.373Z" fill="#133050"/>
<path d="M186.435 296.586C186.196 307.149 186.637 317.727 187.803 328.231C188.811 337.317 189.506 347.539 194.534 355.467C195.386 356.811 197.545 355.571 196.686 354.22C194.236 350.353 193.018 346.002 192.188 341.541C191.277 336.605 190.642 331.601 190.126 326.613C189.088 316.636 188.707 306.607 188.931 296.586C188.968 294.99 186.48 294.997 186.443 296.586H186.435Z" fill="#133050"/>
<path d="M413.747 292.63C416.13 308.092 415.689 323.889 412.484 339.196C412.155 340.747 414.561 341.415 414.882 339.856C418.185 324.082 418.603 307.899 416.145 291.976C415.906 290.41 413.5 291.071 413.747 292.637V292.63Z" fill="#133050"/>
<path d="M232.647 604.272C231.624 601.904 228.314 600.924 226.177 599.722C224.115 598.571 222.112 597.324 220.162 595.995C216.509 593.494 213.087 590.651 209.897 587.577C206.691 584.489 203.77 581.119 201.035 577.615C198.092 573.844 195.917 569.524 192.824 565.887C190.635 563.318 187.168 566.169 187.654 568.878C188.521 573.681 191.464 578.298 194.094 582.359C196.851 586.612 200.161 590.539 203.733 594.14C207.326 597.77 211.301 601.006 215.515 603.901C217.458 605.237 219.46 606.492 221.522 607.65C224.07 609.09 227.148 611.228 230.159 610.352C232.983 609.528 233.708 606.715 232.647 604.272Z" fill="#133050"/>
<path d="M179.791 540.499C179.447 538.74 178.775 537.025 178.013 535.407C176.578 532.356 174.748 529.305 172.499 526.781C171.871 526.076 171.169 525.46 170.369 524.962C169.884 524.658 169.361 524.376 168.793 524.264C168.367 524.183 167.993 524.153 167.568 524.212C166.574 524.346 167.657 524.183 167.074 524.242C164.392 524.524 164.713 527.605 165.528 529.349C165.849 530.032 166.26 530.611 166.708 531.22C167.067 531.71 167.448 532.185 167.837 532.66C167.986 532.861 168.135 533.061 168.285 533.261C169.234 534.56 170.108 535.919 170.892 537.322C171.774 538.903 172.596 540.536 173.38 542.162C174.113 543.669 174.979 545.71 176.578 546.497C177.437 547.425 178.849 547.024 179.313 545.925C180.486 544.485 180.12 542.199 179.783 540.506L179.791 540.499Z" fill="#133050"/>
<path d="M486.272 226.451C484.516 220.706 482.14 215.16 479.219 209.905C476.395 204.812 473.092 199.973 469.222 195.615C467.339 193.499 465.113 191.525 462.744 189.951C461.407 189.068 458.045 188.103 457.365 190.382C456.618 192.861 457.768 194.361 459.121 196.439C460.511 198.57 461.982 200.641 463.409 202.756C466.293 207.032 468.998 211.375 471.24 216.029C473.339 220.386 475.05 224.959 476.417 229.599C477.605 233.622 478.218 237.705 478.965 241.78C478.868 242.871 479.137 244.03 479.585 245.084C480.564 247.407 482.454 249.114 485.174 248.706C487.654 248.335 489.575 246.308 489.589 243.74C489.619 238.024 487.946 231.892 486.28 226.451H486.272Z" fill="white"/>
<path d="M451.619 176.731C451.044 175.001 450.394 173.294 449.363 171.779C448.309 170.22 447.144 168.736 445.829 167.377C444.73 166.242 443.557 165.173 442.317 164.185C441.473 163.51 440.613 162.849 439.732 162.226C439.119 161.788 438.447 161.535 437.752 161.253C436.444 160.726 435.07 160.964 433.852 161.595C432.507 162.292 431.76 163.822 431.73 165.277C431.655 168.35 434.599 169.827 436.848 171.393C438.439 172.663 439.889 174.051 441.331 175.483C442.085 176.233 442.78 177.035 443.49 177.822C444.207 178.624 445.059 179.314 445.806 180.086C446.83 181.147 448.75 181.437 450.02 180.628C451.275 179.826 452.112 178.215 451.619 176.731Z" fill="white"/>
<path d="M416.511 833.057C409.705 833.599 402.883 834.638 396.233 836.152C389.838 827.081 380.678 822.427 373.535 820.059C378.25 815.775 380.812 809.904 380.969 803.074C381.313 787.515 364.943 781.539 358.839 779.854C360.139 730 356.724 683.968 352.271 646.897C366.049 644.61 373.483 638.62 381.313 632.228C420.172 600.509 517.846 453.818 517.846 295.681C517.846 209.326 480.078 164.4 441.249 140.965C461.235 137.721 470.821 125.02 471.299 124.382L473.459 121.442L470.455 119.356C409.66 77.1995 342.753 85.083 331 86.8795C325.531 84.5411 320.331 83.3905 316.334 83.3905C308.481 83.3905 301.891 84.118 295.257 84.9939C302.317 48.6572 292.612 23.626 292.171 22.5347L290.961 19.5135L262.464 27.8721L264.168 31.606C272.499 49.8597 274.045 79.085 274.314 87.4362C269.786 87.7925 264.923 88.0523 259.237 88.0523C248.186 88.0523 237.383 84.7044 225.951 81.171C197.186 72.2557 161.376 61.1802 99.7285 97.3908L97.8232 98.5117L97.9801 100.702C98.0623 101.83 100.184 126.631 131.385 137.937C77.9118 175.305 49.7817 241.216 49.7817 304.522C49.7817 367.827 85.3011 430.717 116.651 484.877C126.88 502.559 136.54 519.261 144.191 534.813L145.917 538.309C166 579.152 190.103 630.558 229.351 642.279C227.752 680.294 227.961 727.409 233.378 778.073C227.423 780.233 211.576 787.485 213.175 802.978C213.877 809.777 216.911 815.419 221.947 819.316C215.021 822.234 206.257 827.601 200.616 837.154C193.876 836.167 186.995 835.67 180.151 835.67C129.838 835.67 99.7733 868.889 99.7733 901.002C99.7733 926.382 120.297 956.015 178.119 956.015C245.833 956.015 280.74 937.65 298.178 921.98C313.315 936.708 343.463 953.952 401.665 953.952C410.115 953.952 419.051 953.581 428.204 952.853C462.834 950.106 487.43 937.064 497.449 916.138C505.16 900.014 503.023 880.684 491.764 864.435C476.387 842.269 448.22 830.511 416.519 833.064L416.511 833.057ZM322.303 660.682L345.039 654.201C349.313 691.844 352.354 737.965 350.575 787.5C350.374 793.261 345.061 795.295 340.571 795.295H340.549C334.833 795.243 328.617 791.954 328.49 784.865C328.467 783.521 328.49 781.309 328.505 778.295C328.789 737.601 326.592 698.31 322.303 660.674V660.682ZM236.875 655.864L260.425 649.101C258.773 689.179 259.692 731.032 263.466 774.213C263.727 777.16 263.914 779.327 263.996 780.649C264.437 787.73 258.512 791.501 252.811 791.999C248.44 792.355 242.852 790.767 242.187 785.021C236.628 737.453 235.814 692.691 236.86 655.856L236.875 655.864ZM268.681 642.962C272.357 642.613 275.495 642.339 277.116 642.354C285.23 641.878 292.5 641.99 299.007 642.495C301.01 642.509 306.187 643.267 312.262 644.217C317.716 684.822 320.525 727.706 320.458 772.372H320.406C315.347 772.372 306.882 773.07 299.941 777.063C292.365 767.213 277.833 767.042 271.012 767.576C267.47 724.447 266.746 682.729 268.681 642.97V642.962ZM462.961 122.927C458.374 127.284 447.562 135.227 429.571 134.529C397.138 118.332 366.639 115.882 359.593 115.533C358.899 113.826 358.166 112.193 357.367 110.708C353.317 103.129 347.647 97.3017 341.61 92.9517C363.703 91.3111 415.435 91.6303 462.954 122.927H462.961ZM272.282 32.4151L286.523 28.2358C288.831 35.956 293.68 57.617 287.666 85.9887C285.663 86.2559 283.586 86.5009 281.479 86.7384C281.195 77.9864 279.731 51.619 272.282 32.4077V32.4151ZM236.015 91.5784C243.681 93.6569 251.28 95.1638 259.244 95.1638C265.595 95.1638 271.072 94.8594 276.077 94.4363C310.319 104.101 321.743 148.374 321.855 148.826C322.259 150.445 323.723 151.536 325.337 151.536C325.621 151.536 325.912 151.499 326.196 151.432C328.116 150.957 329.289 149.027 328.818 147.119C328.385 145.367 318.986 108.837 290.527 92.8106C291.095 92.7364 291.715 92.6547 292.276 92.5805C300.061 91.519 307.413 90.5243 316.326 90.5243C325.24 90.5243 342.454 97.9995 351.031 114.049C358.757 128.502 362.007 154.401 334.265 196.068C318.605 193.537 229.321 175.365 236.015 91.5858V91.5784ZM105.474 102.29C163.057 69.1527 195.326 79.1296 223.822 87.9558C225.563 88.4977 227.281 89.0248 228.992 89.5444C228.424 95.7577 228.357 101.637 228.723 107.212C215.588 107.486 203.148 109.016 191.396 111.636C154.838 112.98 133.074 105.297 132.857 105.222C130.952 104.539 128.942 105.512 128.262 107.353C127.59 109.201 128.546 111.243 130.399 111.918C131.116 112.178 144.669 116.958 168.436 118.465C157.983 122.377 148.181 127.21 139.066 132.859C112.654 125.525 106.744 108.325 105.481 102.29H105.474ZM152.357 535.177L150.632 531.673C142.876 515.906 133.148 499.107 122.86 481.321C91.9731 427.94 56.9543 367.419 56.9543 304.522C56.9543 213.253 117.406 116.372 229.455 114.323C239.938 190.226 334.474 203.32 335.528 203.462L337.724 203.744L338.965 201.925C363.538 165.811 366.213 140.082 361.947 122.771C372.145 123.387 399.73 126.408 428.488 141.114L428.458 141.656C428.869 141.678 429.25 141.67 429.653 141.685C469.349 162.404 510.681 205.607 510.681 295.688C510.681 451.457 414.882 595.609 376.77 626.72C355.551 644.039 342.372 641.804 322.453 638.434C306.942 635.806 287.613 632.547 258.467 637.113C206.593 645.301 182.617 596.686 152.372 535.177H152.357ZM178.112 948.021C126.215 948.021 107.805 922.685 107.805 900.994C107.805 886.994 114.724 872.838 126.783 862.163C140.284 850.219 159.239 843.642 180.144 843.642C217.778 843.642 242.658 859.788 242.904 859.951C244.727 861.146 247.238 860.649 248.478 858.83C249.696 857.004 249.195 854.525 247.357 853.3C246.744 852.899 232.481 843.59 209.185 838.676C217.113 827.994 230.539 824.661 232.855 824.156C238.01 825.329 242.508 825.329 247.006 824.579C248.067 824.409 248.993 823.83 249.621 822.961C250.241 822.093 250.488 821.038 250.308 819.984C250.129 818.923 249.539 817.995 248.635 817.364C247.761 816.748 246.7 816.525 245.691 816.703C238.541 817.891 231.547 816.533 226.99 813.081C223.605 810.52 221.64 806.838 221.155 802.154C220.288 793.721 228.536 788.725 234.267 786.298C235.492 795.146 243.36 800.832 253.543 799.942C263.286 799.081 272.768 792.006 272.035 780.151C271.976 779.134 271.841 777.523 271.662 775.527C277.221 775.141 288.525 775.245 293.74 782.282C291.626 784.85 290.176 787.849 289.414 791.227C288.435 795.629 288.704 800.023 290.228 804.321C286.328 808.337 281.128 811.633 276.548 812.977C275.517 813.274 274.673 813.957 274.157 814.899C273.649 815.835 273.537 816.911 273.836 817.921C274.434 819.977 276.585 821.246 278.827 820.63C281.875 819.739 285.364 818.047 288.749 815.835C290.423 820.378 292.545 824.839 295.361 829.761C293.68 833.665 291.805 837.377 289.862 841.17C283.683 853.233 277.295 865.704 278.745 883.772C279.634 894.796 284.625 906.265 292.828 916.153C276.458 930.828 243.352 948.013 178.127 948.013L178.112 948.021ZM490.18 912.701C481.46 930.932 459.218 942.364 427.561 944.888C320.973 953.328 288.913 910.043 286.732 883.149C285.462 867.337 291.065 856.403 297.02 844.785C300.733 837.548 304.267 830.34 306.628 821.929C310.132 823.83 313.763 825.225 316.946 825.893C317.208 825.953 317.484 825.982 317.791 825.982C319.681 825.982 321.332 824.646 321.706 822.813C321.93 821.766 321.728 820.704 321.145 819.814C320.555 818.923 319.651 818.307 318.605 818.084C312.411 816.8 303.916 812.071 299.657 805.516C297.087 801.575 296.28 797.351 297.259 792.964C299.74 781.821 313.666 780.389 320.465 780.367C320.465 782.371 320.45 783.989 320.465 785.006C320.675 796.883 330.694 803.186 340.481 803.267C341.079 803.282 341.886 803.252 342.573 803.193C351.719 802.466 358.107 796.438 358.592 788.131C364.502 790.098 373.132 794.426 372.937 802.889C372.833 807.61 371.174 811.44 368.006 814.261C363.748 818.054 356.934 819.992 349.627 819.353C349.552 819.353 349.47 819.353 349.387 819.353C347.295 819.353 345.487 820.942 345.301 822.998C345.114 825.188 346.75 827.126 348.962 827.311C353.825 827.734 358.6 827.215 363.157 825.782C365.511 826.116 379.116 828.417 387.813 838.364C364.846 845.142 351.494 855.52 350.927 855.965C349.186 857.323 348.887 859.84 350.262 861.569C351.621 863.292 354.147 863.596 355.895 862.23C356.866 861.488 380.222 843.939 417.154 841.007C446.038 838.78 471.441 849.225 485.144 868.963C494.767 882.83 496.657 899.183 490.18 912.708V912.701Z" fill="#133050"/>
<defs>
<clipPath id="clip0_62_218">
<rect width="142.226" height="423.112" fill="white" transform="translate(58.8848 391.54)"/>
</clipPath>
<clipPath id="clip1_62_218">
<rect width="142.225" height="423.114" fill="white" transform="matrix(-0.998256 0.0590348 0.0591666 0.998248 519.397 386.998)"/>
</clipPath>
</defs>
</svg>
