<svg width="772" height="1029" viewBox="0 0 772 1029" fill="none" xmlns="http://www.w3.org/2000/svg">
<path d="M265.666 969.444C339.036 969.444 398.514 958.684 398.514 945.41C398.514 932.136 339.036 921.376 265.666 921.376C192.296 921.376 132.818 932.136 132.818 945.41C132.818 958.684 192.296 969.444 265.666 969.444Z" fill="#133050"/>
<path d="M638.372 1028.61C711.742 1028.61 771.22 1017.85 771.22 1004.58C771.22 991.304 711.742 980.544 638.372 980.544C565.002 980.544 505.524 991.304 505.524 1004.58C505.524 1017.85 565.002 1028.61 638.372 1028.61Z" fill="#133050"/>
<path d="M315.994 775.601C293.099 770.843 242.085 778.324 242.995 801.67C243.906 813.007 248.664 817.994 248.664 817.994L251.609 820.037L246.851 824.114C246.851 824.114 239.369 824.055 233.42 829.072C227.471 834.089 220.33 840.297 220.33 840.297C220.33 840.297 174.762 825.927 146.88 839.195C118.997 852.455 101.312 872.864 101.312 895.988C101.312 919.112 124.436 961.616 206.048 961.616C287.66 961.616 302.963 951.072 329.832 923.53C356.7 895.988 332.895 851.774 332.895 851.774L323.15 827.518L324.622 818.453C324.622 818.453 336.07 811.764 336.07 798.274C336.07 784.784 316.009 775.601 316.009 775.601H315.994Z" fill="#59BDDD"/>
<path d="M602.416 778.192C577.9 778.192 576.006 807.525 578.655 823.767C581.297 840.01 587.342 857.762 587.342 857.762C587.342 857.762 591.686 868.336 600.566 872.117C609.445 875.891 613.974 872.31 613.974 872.31L612.272 877.601L606.419 895.922C606.419 895.922 576.576 896.115 548.627 919.343C520.67 942.571 517.089 966.746 517.089 979.029C517.089 991.313 541.012 1024.42 590.872 1024.42C640.732 1024.42 716.283 977.579 716.283 886.421C716.283 830.516 671.959 780.153 654.332 780.153C636.706 780.153 623.105 792.747 623.105 792.747C623.105 792.747 614.47 778.207 602.423 778.207L602.416 778.192Z" fill="#59BDDD"/>
<path d="M360.428 615.091L360.598 612.287L354.819 608.972C354.819 608.972 316.451 620.53 298.766 678.574C281.081 736.61 277.795 770.501 277.795 770.501C277.795 770.501 271.335 804.17 289.191 804.17C307.046 804.17 305.344 782.407 305.344 782.407C305.344 782.407 315.09 708.957 328.239 677.212C341.389 645.475 363.381 636.861 363.381 636.861L360.436 615.099L360.428 615.091Z" fill="#F9C941"/>
<path d="M468.229 694.519L463.441 697.538C463.441 697.538 457.899 750.928 474.016 788.696C490.132 826.472 519.095 842.086 548.05 844.098C577.013 846.111 597.91 839.059 597.91 839.059C597.91 839.059 610.504 833.517 607.478 822.691C604.451 811.865 595.897 807.58 568.947 813.878C542.005 820.175 511.281 799.522 502.971 780.135C494.661 760.747 494.913 719.693 494.913 719.693L495.416 688.718L490.88 684.944L468.214 694.512L468.229 694.519Z" fill="#F9C941"/>
<path d="M165.007 486.774C148.232 486.774 144.147 507.123 144.147 507.123C144.147 507.123 127.653 502.705 99.4302 514.094C71.2075 525.489 74.9444 532.29 51.6499 533.984C28.3554 535.686 12.2831 531.602 9.95221 540.614C7.61388 549.627 14.9249 555.236 14.9249 555.236L20.3637 560.845C20.3637 560.845 4.03979 561.696 4.03979 574.106C4.03979 586.515 13.7335 592.812 24.6111 596.89C35.4962 600.967 45.5229 602.329 45.5229 602.329L54.1954 602.669C54.1954 602.669 72.5616 614.568 104.521 606.073C136.488 597.57 166.243 567.305 166.243 567.305C166.243 567.305 179.843 582.778 204.159 583.629C228.475 584.48 243.008 574.787 242.882 566.795C242.756 558.803 231.361 557.952 217.76 549.28L200.074 535.509L207.045 526.496C207.045 526.496 209.879 486.766 164.992 486.766L165.007 486.774Z" fill="white"/>
<path d="M255.013 426.701L250.255 426.25C250.255 426.25 231.208 449.145 212.849 465.247C194.483 481.341 187.002 486.787 187.002 486.787L185.189 491.546L195.615 499.027L201.054 505.146H207.625C207.625 505.146 221.455 495.171 240.043 476.124C258.631 457.077 264.078 450.736 264.078 450.736L264.988 444.165L255.013 426.709V426.701Z" fill="#F9C941"/>
<path d="M404.353 3.4947C419.316 3.4947 413.196 32.0578 424.244 59.4369C435.299 86.8087 442.61 91.5741 442.61 91.5741L446.184 97.3534L424.932 95.1408L409.119 95.311L410.48 86.8087C410.48 86.8087 412.352 63.6844 407.417 44.8076C402.489 25.9308 393.305 3.4873 404.353 3.4873V3.4947Z" fill="#A48451"/>
<path d="M401.749 33.8101C401.749 33.8101 385.425 71.6673 373.185 92.5273C360.946 113.387 339.406 147.167 299.957 170.965C260.509 194.77 218.005 199.868 218.005 199.868L207.46 201.23L201 195.451C201 195.451 193.519 130.495 240.789 81.1908C288.059 31.8788 355.389 27.4611 355.389 27.4611L394.386 25.7592L401.756 33.8101H401.749Z" fill="#13A5A5"/>
<path d="M393.135 94.8003C509.778 94.8003 601.254 161.679 636.617 298.612C671.981 435.545 595.127 573.61 595.127 573.61C595.127 573.61 531.689 702.151 422.734 702.151C387.689 702.151 372.727 687.64 366.378 662.703C360.029 637.766 363.655 608.744 355.951 590.607C348.248 572.47 332.598 545.039 303.354 502.868C274.11 460.697 219.211 386.092 219.211 300.632C219.211 242.603 241.011 198.626 241.011 198.626L248.492 193.639C248.492 193.639 290.774 184.907 325.117 152.948C359.466 120.981 364.905 105.678 364.905 105.678C364.905 105.678 369.663 98.367 377.825 96.924C385.987 95.4811 393.128 94.8003 393.128 94.8003H393.135Z" fill="#FF8311"/>
<path d="M556.981 252.584L559.704 248.507C559.704 248.507 547.124 236.608 526.716 239.324C506.315 242.047 479.446 271.631 473.667 315.157C467.888 358.682 473.326 400.173 499.174 425.561C525.021 450.95 558.12 430.549 558.12 430.549L559.874 424.651C559.874 424.651 545.252 426.464 530.46 414.906C515.668 403.347 501.749 386.276 506.315 329.779C512.553 252.584 556.981 252.584 556.981 252.584Z" fill="#E46750"/>
<path d="M614.795 338.962C614.795 273.666 583.509 252.814 554.946 252.814C526.383 252.814 505.071 298.611 505.071 339.872C505.071 381.133 517.651 424.659 559.881 424.659C602.112 424.659 614.802 368.887 614.802 338.962H614.795Z" fill="#59BDDD"/>
<path d="M570.929 388.614C586.14 388.614 598.471 366.384 598.471 338.962C598.471 311.539 586.14 289.309 570.929 289.309C555.718 289.309 543.387 311.539 543.387 338.962C543.387 366.384 555.718 388.614 570.929 388.614Z" fill="#E46750"/>
<path d="M305.765 428.602C333.588 425.057 351.781 387.949 346.401 345.719C341.021 303.488 314.105 272.126 286.282 275.671C258.46 279.215 240.266 316.323 245.646 358.554C251.026 400.785 277.942 432.146 305.765 428.602Z" fill="white"/>
<path d="M395.541 424.072C423.364 420.527 441.557 383.419 436.177 341.189C430.797 298.958 403.881 267.597 376.059 271.141C348.236 274.686 330.042 311.794 335.422 354.024C340.802 396.255 367.718 427.616 395.541 424.072Z" fill="white"/>
<path d="M437.623 396.436C437.623 396.436 418.243 429.084 412.116 452.549C405.997 476.013 409.733 502.874 427.419 520.9C445.104 538.926 469.59 544.875 491.863 543.344C514.137 541.812 540.154 523.623 545.083 515.802C550.011 507.98 545.874 488.371 529.328 496.422C512.346 504.68 482.629 524.645 456.67 508.321C427.115 489.74 443.92 444.727 443.92 444.727C443.92 444.727 456.559 423.305 458.143 415.143C459.726 406.981 437.623 396.436 437.623 396.436Z" fill="#F9C941"/>
<path d="M431.288 408.86C431.288 408.86 430.962 417.754 425.945 410.828C420.928 403.902 418.583 390.701 425.265 382.946C431.947 375.183 439.524 380.57 439.524 380.57L441.078 375.798C441.078 375.798 440.005 351.8 449.077 339.864C458.149 327.928 464.957 325.302 478.321 319.33C491.692 313.358 506.255 303.576 515.801 296.65C525.354 289.723 531.081 288.051 538.962 292.114C546.843 296.176 548.515 298.322 548.515 298.322C548.515 298.322 569.841 284.366 579.587 294.452C589.34 304.53 577.404 317.184 577.404 317.184C577.404 317.184 584.086 326.974 584.804 331.747C585.521 336.52 580.504 344.4 573.341 351.082C566.178 357.764 560.924 360.872 560.924 360.872L565.461 364.69C565.461 364.69 579.305 367.258 581.814 372.453C584.323 377.647 586.468 379.076 579.846 385.706C573.223 392.336 559.615 392.869 549.588 394.66C539.561 396.45 530.785 400.75 522.372 406.299C513.958 411.849 502.318 419.19 491.034 418.835C479.756 418.479 476.53 417.762 476.53 417.762C476.53 417.762 478.321 428.144 470.263 433.161C462.204 438.178 451.637 431.547 451.637 431.547C451.637 431.547 458.371 412.508 449.861 406.299C441.344 400.098 431.288 408.867 431.288 408.867V408.86Z" fill="white"/>
<path d="M178.498 867.424C188.453 867.424 196.524 863.16 196.524 857.901C196.524 852.641 188.453 848.377 178.498 848.377C168.543 848.377 160.472 852.641 160.472 857.901C160.472 863.16 168.543 867.424 178.498 867.424Z" fill="white"/>
<path d="M578.279 919.15C567.927 923.027 561.193 930.605 563.235 936.073C565.285 941.542 575.341 942.837 585.693 938.959C596.046 935.082 602.78 927.504 600.737 922.036C598.687 916.567 588.631 915.272 578.279 919.15Z" fill="white"/>
<path d="M332.872 446.525C335.61 448.331 339.117 449.241 342.876 449.241C346.176 449.241 349.662 448.538 352.962 447.132C354.731 446.37 355.544 444.327 354.79 442.566C354.02 440.798 351.97 439.998 350.224 440.738C345.333 442.847 339.901 442.833 336.705 440.738C334.722 439.429 333.76 437.438 333.76 434.648C333.76 433.065 334.241 431.851 335.284 430.823C338.081 428.055 344.03 427.463 346.236 427.463H346.376C348.278 427.463 349.832 425.939 349.854 424.03C349.884 422.113 348.345 420.537 346.435 420.515C345.444 420.544 335.854 420.515 330.415 425.872C328.062 428.196 326.819 431.23 326.819 434.648C326.819 439.732 328.979 443.957 332.894 446.54L332.872 446.525Z" fill="#133050"/>
<path d="M399.395 459.237C399.047 459.34 390.959 461.583 384.669 455.204C379.541 450.002 381.769 441.662 381.798 441.581C382.316 439.731 381.251 437.822 379.408 437.297C377.536 436.727 375.634 437.829 375.109 439.679C374.983 440.123 372.452 449.403 377.425 457.158C356.38 479.194 335.594 468.139 334.691 467.636C333.027 466.703 330.91 467.295 329.963 468.96C329.016 470.632 329.608 472.756 331.28 473.696C331.421 473.77 338.613 477.707 349.01 477.707C358.43 477.707 370.469 474.377 382.272 462.13C386.912 465.623 391.832 466.637 395.54 466.637C398.862 466.637 401.178 465.956 401.4 465.889C403.228 465.334 404.249 463.41 403.709 461.575C403.169 459.74 401.26 458.667 399.395 459.229V459.237Z" fill="#133050"/>
<path d="M69.0828 513.359C72.9159 514.336 77.3632 511.154 80.7227 509.629C84.541 507.898 88.3592 506.122 92.2219 504.487C96.0106 502.881 99.8511 501.401 103.729 500.032C107.939 498.537 112.616 497.649 116.597 495.629C120.038 493.883 118.543 487.763 114.569 488.14C110.115 488.562 105.689 490.479 101.523 492.025C97.2686 493.602 93.0729 495.34 88.9512 497.25C84.8887 499.129 80.9447 501.142 77.1338 503.488C74.0481 505.382 68.9644 507.72 68.0617 511.568C67.8841 512.33 68.2911 513.174 69.0902 513.374L69.0828 513.359Z" fill="#133050"/>
<path d="M251.318 554.243C251.851 554.679 252.383 555.131 252.909 555.59C255.136 557.521 257.008 560.207 259.99 560.917C262.085 561.413 264.408 559.911 264.334 557.61C264.267 555.471 263.461 553.917 262.04 552.356C261.108 551.335 260.101 550.358 259.051 549.455C256.735 547.45 254.159 545.674 251.473 544.209C248.854 542.781 246.057 541.567 243.208 540.679C240.263 539.754 236.807 539.132 233.773 539.806C231.131 540.39 230.65 544.349 233.011 545.615C235.394 546.887 238.109 547.479 240.64 548.412C241.291 548.656 241.95 548.885 242.594 549.144C242.682 549.181 242.675 549.174 242.705 549.189C242.734 549.203 242.719 549.189 242.764 549.211C243.082 549.352 243.4 549.492 243.711 549.64C244.902 550.202 246.079 550.817 247.211 551.49C248.291 552.126 249.342 552.815 250.356 553.54C250.6 553.717 250.844 553.895 251.088 554.08C251.148 554.124 251.229 554.191 251.31 554.258L251.318 554.243Z" fill="#133050"/>
<path d="M643.099 757.464C650.995 758.404 658.875 759.477 666.164 762.836C673.231 766.092 679.684 770.702 685.226 776.134C691.005 781.809 695.956 788.255 700.44 794.981C702.749 798.444 704.946 801.989 707.092 805.563C709.194 809.055 710.6 813.014 714.618 814.516C716.468 815.212 719.235 813.732 719.531 811.727C720.212 807.109 717.015 803.476 714.707 799.665C712.331 795.751 709.897 791.866 707.3 788.092C702.164 780.611 696.444 773.455 689.614 767.446C677.686 756.946 658.639 746.927 642.5 752.987C640.013 753.92 640.539 757.161 643.107 757.472L643.099 757.464Z" fill="#133050"/>
<path d="M684.59 751.064C685.197 751.471 685.818 751.87 686.425 752.27C687.713 753.121 689.052 753.883 690.325 754.756C692.907 756.525 694.75 757.983 697.088 760.158C699.286 762.201 701.38 764.398 703.297 766.707C703.533 766.988 703.763 767.277 703.992 767.558C704.14 767.736 704.155 767.758 704.199 767.81C704.244 767.869 704.251 767.891 704.384 768.069C704.821 768.661 705.25 769.253 705.672 769.852C706.723 771.361 707.707 772.871 709.009 774.181C709.927 775.106 711.636 775.735 712.924 775.217C713.686 774.906 714.056 774.699 714.7 774.181C715.758 773.33 716.12 771.517 715.736 770.266C714.648 766.759 712.184 763.843 709.853 761.076C707.766 758.589 705.487 756.318 702.978 754.261C700.322 752.085 697.54 750.072 694.55 748.385C693.211 747.623 691.834 746.905 690.428 746.269C689.548 745.877 688.645 745.551 687.735 745.248C687.306 745.107 686.921 744.989 686.477 744.915C686.04 744.841 685.493 744.952 685.123 744.9C683.961 744.722 682.814 745.018 682.178 746.099C681.645 747.009 681.689 748.563 682.585 749.258C683.243 749.769 683.798 750.539 684.583 751.064H684.59Z" fill="#133050"/>
<path d="M368.708 865.797C367.139 861.668 365.386 857.583 363.21 853.742C361.234 850.257 358.852 845.543 355.314 843.457C352.554 841.829 350.016 844.507 350.408 847.231C350.667 849.021 351.74 850.672 352.51 852.292C353.346 854.053 354.278 855.755 355.115 857.516C356.676 860.787 358.149 864.11 359.399 867.506C361.922 874.38 363.706 881.573 364.69 888.825C365.104 891.844 366.022 898.104 370.432 897.505C374.628 896.935 374.606 891.126 374.199 888.003C373.207 880.396 371.439 872.982 368.708 865.804V865.797Z" fill="#133050"/>
<path d="M504.359 423.706C502.643 423.706 501.251 425.097 501.251 426.821C501.251 428.545 502.643 429.936 504.359 429.936C506.076 429.936 507.475 428.545 507.475 426.821C507.475 425.097 506.084 423.706 504.359 423.706Z" fill="#133050"/>
<path d="M515.564 413.743C513.847 413.743 512.449 415.134 512.449 416.858C512.449 418.582 513.84 419.974 515.564 419.974C517.288 419.974 518.679 418.582 518.679 416.858C518.679 415.134 517.288 413.743 515.564 413.743Z" fill="#133050"/>
<path d="M515.564 423.706C513.847 423.706 512.449 425.097 512.449 426.821C512.449 428.545 513.84 429.936 515.564 429.936C517.288 429.936 518.679 428.545 518.679 426.821C518.679 425.097 517.288 423.706 515.564 423.706Z" fill="#133050"/>
<path d="M526.773 413.743C525.057 413.743 523.666 415.134 523.666 416.858C523.666 418.582 525.057 419.974 526.773 419.974C528.49 419.974 529.889 418.582 529.889 416.858C529.889 415.134 528.498 413.743 526.773 413.743Z" fill="#133050"/>
<path d="M526.773 423.706C525.057 423.706 523.666 425.097 523.666 426.821C523.666 428.545 525.057 429.936 526.773 429.936C528.49 429.936 529.889 428.545 529.889 426.821C529.889 425.097 528.498 423.706 526.773 423.706Z" fill="#133050"/>
<path d="M526.773 433.663C525.057 433.663 523.666 435.055 523.666 436.779C523.666 438.503 525.057 439.894 526.773 439.894C528.49 439.894 529.889 438.503 529.889 436.779C529.889 435.055 528.498 433.663 526.773 433.663Z" fill="#133050"/>
<path d="M537.978 423.706C536.261 423.706 534.862 425.097 534.862 426.821C534.862 428.545 536.253 429.936 537.978 429.936C539.702 429.936 541.093 428.545 541.093 426.821C541.093 425.097 539.702 423.706 537.978 423.706Z" fill="#133050"/>
<path d="M537.978 433.663C536.261 433.663 534.862 435.055 534.862 436.779C534.862 438.503 536.253 439.894 537.978 439.894C539.702 439.894 541.093 438.503 541.093 436.779C541.093 435.055 539.702 433.663 537.978 433.663Z" fill="#133050"/>
<path d="M549.179 423.706C547.462 423.706 546.071 425.097 546.071 426.821C546.071 428.545 547.462 429.936 549.179 429.936C550.896 429.936 552.294 428.545 552.294 426.821C552.294 425.097 550.903 423.706 549.179 423.706Z" fill="#133050"/>
<path d="M477.878 304.891C476.161 304.891 474.763 306.283 474.763 308.007C474.763 309.731 476.154 311.122 477.878 311.122C479.602 311.122 480.993 309.731 480.993 308.007C480.993 306.283 479.602 304.891 477.878 304.891Z" fill="#133050"/>
<path d="M477.878 314.854C476.161 314.854 474.763 316.245 474.763 317.969C474.763 319.693 476.154 321.085 477.878 321.085C479.602 321.085 480.993 319.693 480.993 317.969C480.993 316.245 479.602 314.854 477.878 314.854Z" fill="#133050"/>
<path d="M489.08 275.014C487.363 275.014 485.964 276.405 485.964 278.129C485.964 279.853 487.355 281.245 489.08 281.245C490.804 281.245 492.195 279.853 492.195 278.129C492.195 276.405 490.804 275.014 489.08 275.014Z" fill="#133050"/>
<path d="M489.08 284.972C487.363 284.972 485.964 286.363 485.964 288.087C485.964 289.812 487.355 291.203 489.08 291.203C490.804 291.203 492.195 289.812 492.195 288.087C492.195 286.363 490.804 284.972 489.08 284.972Z" fill="#133050"/>
<path d="M489.08 294.935C487.363 294.935 485.964 296.326 485.964 298.05C485.964 299.774 487.355 301.165 489.08 301.165C490.804 301.165 492.195 299.774 492.195 298.05C492.195 296.326 490.804 294.935 489.08 294.935Z" fill="#133050"/>
<path d="M489.08 304.891C487.363 304.891 485.964 306.283 485.964 308.007C485.964 309.731 487.355 311.122 489.08 311.122C490.804 311.122 492.195 309.731 492.195 308.007C492.195 306.283 490.804 304.891 489.08 304.891Z" fill="#133050"/>
<path d="M500.282 261.324C501.999 261.324 503.398 259.933 503.398 258.209C503.398 256.484 502.006 255.093 500.282 255.093C498.558 255.093 497.167 256.484 497.167 258.209C497.167 259.933 498.558 261.324 500.282 261.324Z" fill="#133050"/>
<path d="M500.282 271.277C501.999 271.277 503.398 269.886 503.398 268.162C503.398 266.438 502.006 265.046 500.282 265.046C498.558 265.046 497.167 266.438 497.167 268.162C497.167 269.886 498.558 271.277 500.282 271.277Z" fill="#133050"/>
<path d="M500.282 281.236C501.999 281.236 503.398 279.845 503.398 278.121C503.398 276.397 502.006 275.006 500.282 275.006C498.558 275.006 497.167 276.397 497.167 278.121C497.167 279.845 498.558 281.236 500.282 281.236Z" fill="#133050"/>
<path d="M500.282 291.197C501.999 291.197 503.398 289.805 503.398 288.081C503.398 286.357 502.006 284.966 500.282 284.966C498.558 284.966 497.167 286.357 497.167 288.081C497.167 289.805 498.558 291.197 500.282 291.197Z" fill="#133050"/>
<path d="M503.39 298.05C503.39 296.333 501.999 294.935 500.275 294.935C498.551 294.935 497.16 296.326 497.16 298.05C497.16 299.774 498.551 301.165 500.275 301.165C501.999 301.165 503.39 299.774 503.39 298.05Z" fill="#133050"/>
<path d="M511.485 251.364C513.202 251.364 514.601 249.972 514.601 248.248C514.601 246.524 513.21 245.133 511.485 245.133C509.761 245.133 508.37 246.524 508.37 248.248C508.37 249.972 509.761 251.364 511.485 251.364Z" fill="#133050"/>
<path d="M511.485 261.324C513.202 261.324 514.601 259.933 514.601 258.209C514.601 256.484 513.21 255.093 511.485 255.093C509.761 255.093 508.37 256.484 508.37 258.209C508.37 259.933 509.761 261.324 511.485 261.324Z" fill="#133050"/>
<path d="M511.485 271.277C513.202 271.277 514.601 269.886 514.601 268.162C514.601 266.438 513.21 265.046 511.485 265.046C509.761 265.046 508.37 266.438 508.37 268.162C508.37 269.886 509.761 271.277 511.485 271.277Z" fill="#133050"/>
<path d="M511.485 281.236C513.202 281.236 514.601 279.845 514.601 278.121C514.601 276.397 513.21 275.006 511.485 275.006C509.761 275.006 508.37 276.397 508.37 278.121C508.37 279.845 509.761 281.236 511.485 281.236Z" fill="#133050"/>
<path d="M511.485 291.197C513.202 291.197 514.601 289.805 514.601 288.081C514.601 286.357 513.21 284.966 511.485 284.966C509.761 284.966 508.37 286.357 508.37 288.081C508.37 289.805 509.761 291.197 511.485 291.197Z" fill="#133050"/>
<path d="M514.601 298.05C514.601 296.333 513.21 294.935 511.485 294.935C509.761 294.935 508.37 296.326 508.37 298.05C508.37 299.774 509.761 301.165 511.485 301.165C513.21 301.165 514.601 299.774 514.601 298.05Z" fill="#133050"/>
<path d="M522.69 251.364C524.407 251.364 525.805 249.972 525.805 248.248C525.805 246.524 524.414 245.133 522.69 245.133C520.966 245.133 519.575 246.524 519.575 248.248C519.575 249.972 520.966 251.364 522.69 251.364Z" fill="#133050"/>
<path d="M522.69 261.324C524.407 261.324 525.805 259.933 525.805 258.209C525.805 256.484 524.414 255.093 522.69 255.093C520.966 255.093 519.575 256.484 519.575 258.209C519.575 259.933 520.966 261.324 522.69 261.324Z" fill="#133050"/>
<path d="M525.805 268.168C525.805 266.451 524.414 265.053 522.69 265.053C520.966 265.053 519.575 266.444 519.575 268.168C519.575 269.892 520.966 271.283 522.69 271.283C524.414 271.283 525.805 269.892 525.805 268.168Z" fill="#133050"/>
<path d="M533.893 251.364C535.609 251.364 537.008 249.972 537.008 248.248C537.008 246.524 535.617 245.133 533.893 245.133C532.168 245.133 530.777 246.524 530.777 248.248C530.777 249.972 532.168 251.364 533.893 251.364Z" fill="#133050"/>
<path d="M537.008 258.209C537.008 256.492 535.617 255.093 533.893 255.093C532.168 255.093 530.777 256.484 530.777 258.209C530.777 259.933 532.168 261.324 533.893 261.324C535.617 261.324 537.008 259.933 537.008 258.209Z" fill="#133050"/>
<path d="M548.211 248.248C548.211 246.532 546.819 245.133 545.095 245.133C543.371 245.133 541.98 246.524 541.98 248.248C541.98 249.972 543.371 251.364 545.095 251.364C546.819 251.364 548.211 249.972 548.211 248.248Z" fill="#133050"/>
<path d="M556.308 245.133C554.591 245.133 553.192 246.524 553.192 248.248C553.192 249.972 554.584 251.364 556.308 251.364C558.032 251.364 559.423 249.972 559.423 248.248C559.423 246.524 558.032 245.133 556.308 245.133Z" fill="#133050"/>
<path d="M489.673 126.012C483.709 122.327 477.064 119.478 470.441 117.236C466.689 115.963 462.797 115.068 458.905 114.358C455.205 113.692 450.284 112.693 446.658 114.106C444.194 115.068 443.55 118.235 445.918 119.767C448.686 121.55 452.622 122.039 455.797 122.756C459.171 123.519 462.486 124.481 465.764 125.576C472.224 127.736 478.344 130.393 484.249 133.782C486.025 134.803 487.497 135.543 489.584 135.61C490.524 135.639 491.486 135.632 492.322 135.136C492.966 134.759 493.055 134.788 493.454 134.204C495.452 131.296 492.226 127.581 489.673 126.005V126.012Z" fill="white"/>
<path d="M530.217 156.115C530.195 156.048 530.173 155.974 530.158 155.908C530.698 153.007 528.19 150.543 525.985 148.789C523.55 146.858 521.005 145.089 518.355 143.469C515.95 141.989 513.479 140.657 510.896 139.495C509.38 138.814 507.87 138.141 506.257 137.726C504.407 137.245 501.617 137.393 501.092 139.717C500.3 143.224 504.688 144.956 507.137 146.362C509.513 147.724 511.866 149.144 514.145 150.661C515.255 151.401 516.35 152.163 517.43 152.955C518.755 153.925 519.251 154.309 520.62 155.375C520.176 155.035 520.908 155.604 520.982 155.663C521.441 156.026 521.885 156.418 522.366 156.751C522.899 157.121 523.483 157.454 524.061 157.75C524.919 158.194 525.903 158.52 526.88 158.52C527.243 158.52 527.672 158.446 528.027 158.342C528.042 158.342 528.131 158.29 528.182 158.261C529.403 158.438 530.602 157.402 530.217 156.107V156.115Z" fill="white"/>
<path d="M501.01 153.184C500.256 150.246 497.473 148.596 495.046 147.175C492.945 145.94 490.784 144.83 488.608 143.735C484.058 141.448 479.351 139.051 474.29 138.237C473.298 138.074 472.314 138.34 471.781 139.258C471.308 140.064 471.389 141.315 472.129 141.951C475.97 145.274 480.483 147.605 484.827 150.202C486.914 151.453 488.971 152.747 491.058 153.998C493.551 155.5 496.112 157.047 499.146 156.462C500.574 156.188 501.343 154.486 501.003 153.184H501.01Z" fill="white"/>
<path d="M461.103 675.874C459.075 675.703 457.225 676.68 455.346 677.324C453.807 677.857 452.253 678.345 450.691 678.804C447.347 679.795 443.98 680.698 440.561 681.386C437.165 682.075 433.716 682.504 430.327 683.229C428.196 683.688 422.276 684.517 424.008 687.972C424.866 689.689 426.812 689.785 428.507 690.007C430.135 690.222 431.726 690.385 433.376 690.355C436.891 690.288 440.347 689.859 443.817 689.282C447.14 688.727 450.462 688.039 453.696 687.092C455.257 686.633 456.811 686.137 458.35 685.604C460.356 684.909 462.472 684.339 463.937 682.718C466.386 680.017 464.573 676.147 461.095 675.859L461.103 675.874Z" fill="#133050"/>
<path d="M498.664 657.929C496.895 658.98 495.282 660.246 493.558 661.363C491.886 662.443 490.169 663.442 488.401 664.36C486.639 665.27 484.863 666.136 483.073 666.987C481.282 667.838 478.699 668.74 477.767 670.62C477.197 671.774 477.471 673.114 478.603 673.824C480.631 675.089 483.546 674.246 485.677 673.654C487.89 673.04 490.088 672.152 492.167 671.182C496.126 669.347 500.292 667.179 503.466 664.153C506.73 661.045 502.527 655.621 498.664 657.922V657.929Z" fill="#133050"/>
<path d="M668.436 783.082C651.654 770.613 631.548 784.303 625.074 789.423C620.219 781.476 613.027 774.713 602.49 774.713H602.401C581.082 774.779 574.763 796.882 574.311 809.299C557.144 812.266 538.4 813.687 520.892 799.502C494.593 778.198 494.594 725.341 499.322 684.398C592.766 630.706 649.323 485.833 649.323 379.41C649.323 272.986 611.732 200.269 558.446 151.948C552.541 126.967 543.388 108.201 530.867 95.3918C518.073 82.309 501.69 75.6788 482.177 75.6788C462.664 75.6788 452.874 86.0088 448.116 92.3431C430.807 78.5203 423.386 45.3989 418.709 24.4058C415.756 11.1602 414.328 5.21079 411.561 2.90206C408.172 0.0753495 403.295 -0.723825 399.699 0.970722C396.443 2.49507 394.578 5.80277 394.578 10.0502C394.578 12.1222 395.459 15.6001 397.176 21.7937C322.512 22.8296 267.532 43.1272 233.803 82.2794C189.19 134.07 198.344 199.21 198.758 201.963L199.232 205.16L202.458 204.916C214.49 203.998 225.775 202.348 236.356 200.069C222.741 230.016 215.755 263.781 215.755 300.654C215.755 344.912 229.741 385.07 249.099 422.106C242.861 429.698 210.664 468.074 182.072 487.024C170.839 482.895 160.398 483.14 152.865 487.883C147.574 491.22 144.377 496.533 143.548 502.645C141.595 502.534 139.575 502.468 137.488 502.468C117.62 502.468 102.139 509.801 87.1696 516.897C75.7 522.336 63.8381 527.953 49.8378 530.409C39.0267 532.304 30.7834 532.348 24.76 532.385C15.9616 532.437 9.59784 532.474 6.75633 539.296C4.84719 543.884 5.66116 549.264 8.93926 553.682C10.1306 555.295 12.0694 557.256 14.9479 559.024C5.48357 561.481 2.14627 567.534 1.1103 570.523C-1.48702 578.034 1.48029 586.796 8.50267 592.338C22.0221 602.994 37.7466 604.533 45.7013 604.533C47.7362 604.533 49.2088 604.437 50.0672 604.363C50.193 604.459 50.2818 604.577 50.415 604.673C57.7703 610.016 69.24 612.325 80.7022 612.325C89.0936 612.325 97.4701 611.089 104.219 608.906C135.705 598.702 159.739 579.033 166.939 572.699C171.801 576.162 183.544 583.591 198.714 586.566C215.57 589.911 235.143 583.606 242.839 575.651C246.627 571.744 246.812 568.281 246.302 566.061C244.992 560.408 239.183 557.433 231.154 553.319C223.673 549.486 213.661 544.306 203.894 535.064C210.154 529.085 211.116 522.595 210.687 517.926C210.368 514.441 209.177 511.088 207.475 507.929C235.291 489.237 260.036 460.992 266.747 453.03C278.535 472.173 291.174 490.488 303.354 508.084C328.913 545.016 350.986 576.917 356.329 604.91C356.373 605.162 356.395 605.458 356.44 605.717C302.643 622.166 284.455 698.636 273.895 771.856C273.755 772.84 273.666 773.751 273.555 774.698C269.16 775.105 242.639 778.398 239.597 799.369C238.591 806.332 240.374 812.636 244.748 817.587C245.48 818.416 246.294 819.163 247.123 819.881C238.991 821.834 227.632 826.378 219.581 836.767C212.64 834.658 205.011 832.882 196.738 831.683C141.854 823.766 103.804 855.355 98.7133 890.534C94.6952 918.246 112.381 953.854 175.434 962.992C193.253 965.575 209.347 966.737 223.888 966.737C310.613 966.737 341.426 925.364 345.51 897.179C348.381 877.333 342.217 863.044 336.253 849.221C332.576 840.704 328.868 831.854 327.107 821.598C335.506 816.062 341.818 807.42 340.205 795.299C337.445 774.528 311.834 771.257 310.739 771.131C310.717 771.131 310.694 771.139 310.665 771.131C315.489 732.053 328.276 664.678 360.073 642.716C363.122 673.462 371.876 705.68 422.757 705.68C435.499 705.68 447.805 704.015 459.667 700.937C456.81 767.587 471.935 813.236 503.569 832.971C522.128 844.552 542.67 848.074 560.777 848.074C567.651 848.074 574.148 847.549 580.083 846.786C581.889 853.912 589.222 877.059 608.269 877.421C608.417 877.421 608.572 877.421 608.72 877.421C608.794 877.421 608.861 877.407 608.935 877.407C604.591 884.496 603.666 890.319 603.636 893.568C569.316 896.38 534.863 919.866 520.382 947.342C507.876 971.051 511.998 993.05 531.689 1007.68C549.337 1020.8 570.234 1027.58 592.159 1027.58C599.855 1027.58 607.677 1026.75 615.521 1025.06C644.779 1018.76 671.13 1001.5 689.725 976.482C753.319 890.926 701.743 807.886 668.444 783.141L668.436 783.082ZM452.452 403.814C449.055 400.765 444.49 399.389 439.968 400.018C435.462 400.647 431.496 403.2 429.091 407.026C428.995 407.181 428.913 407.336 428.817 407.492C425.864 403.118 421.691 394.483 428.144 386.957C430.808 383.849 433.93 382.318 437.682 382.273H437.845C445.681 382.273 455.937 388.696 466.016 399.922C471.713 406.256 474.155 412.257 474.459 417.134C474.466 417.296 474.481 417.452 474.511 417.615C474.614 420.708 473.852 423.32 472.439 425.214C469.301 429.425 463.293 430.12 456.559 427.427C460.74 419.435 459.089 409.778 452.452 403.821V403.814ZM450.321 424.393C431.466 458.957 430.852 489.614 448.685 506.39C466.548 523.209 497.598 521.167 529.72 501.054C535.855 497.214 540.731 498.679 542.855 501.854C545.948 506.471 544.083 515.181 532.643 523.394C500.491 546.496 458.534 545.756 432.909 521.67C406.277 496.615 407.047 455.139 434.974 410.733C436.291 408.639 438.459 407.248 440.938 406.907C441.337 406.855 441.737 406.826 442.137 406.826C444.231 406.826 446.243 407.588 447.812 408.994C452.126 412.864 453.155 419.198 450.321 424.4V424.393ZM419.582 404.776C412.93 413.826 404.509 419.391 395.133 420.582C391.826 421.004 388.503 420.834 385.203 420.197C385.439 417.718 385.602 415.21 385.602 412.642C385.602 381.089 367.532 355.508 345.251 355.508C343.231 355.508 341.27 355.797 339.332 356.219C339.198 355.323 339.021 354.45 338.902 353.547C336.386 333.79 339.058 314.625 346.435 299.574C353.576 285.003 364.261 276.124 376.523 274.562C377.81 274.4 379.113 274.318 380.4 274.318C391.404 274.318 402.459 280.208 411.916 291.234C422.831 303.954 430.23 321.839 432.754 341.597C434.308 353.762 433.738 365.609 431.451 376.494C428.247 377.619 425.346 379.535 422.86 382.436C416.556 389.799 417.014 398.072 419.582 404.776ZM251.385 356.189C250.564 356.189 249.772 356.33 248.966 356.404C244.511 316.852 261.234 282.347 286.749 279.091C288.044 278.921 289.339 278.847 290.641 278.847C307.675 278.847 323.896 293.047 333.885 314.506C330.948 326.871 330.237 340.524 332.013 354.435C333.441 365.624 336.394 376.25 340.575 385.84C339.235 390.864 337.607 395.704 335.447 400.107C328.306 414.677 317.621 423.557 305.359 425.118C300.572 425.725 295.739 425.162 290.989 423.549C291.433 420.219 291.744 416.83 291.744 413.315C291.744 381.763 273.673 356.182 251.393 356.182L251.385 356.189ZM471.188 395.275C465.757 389.222 456.041 379.994 445.422 376.664C445.074 373.453 443.676 356.581 451.016 344.135C458.631 331.237 467.281 327.493 478.24 322.757C484.582 320.012 491.774 316.904 499.433 311.561C504.48 308.039 508.816 305.345 512.849 302.844C515.875 300.972 518.732 299.189 521.595 297.265C526.464 293.972 531.045 292.781 535.144 293.713C538.77 294.534 541.464 296.858 543.129 298.7L514.129 319.242C512.56 320.352 512.198 322.52 513.3 324.089C513.981 325.044 515.054 325.554 516.142 325.554C516.845 325.554 517.54 325.347 518.154 324.918L550.055 302.319C551.217 301.557 552.992 300.536 555.05 299.5C555.479 299.389 555.871 299.204 556.241 298.93C563.012 295.718 572.454 292.751 577.293 297.05C579.38 298.9 580.401 300.942 580.423 303.281C580.468 308.646 575.288 314.61 573.26 316.482C562.834 325.88 541.619 341.752 541.404 341.915C539.873 343.062 539.554 345.245 540.701 346.784C541.39 347.694 542.426 348.175 543.484 348.175C544.209 348.175 544.942 347.953 545.571 347.48C546.399 346.858 565.039 332.902 576.087 323.253C577.937 324.54 579.839 326.768 580.734 329.691C581.496 332.192 581.748 336.091 578.618 340.516C571.418 350.684 540.872 372.18 540.561 372.402C538.985 373.505 538.607 375.673 539.71 377.242C540.82 378.818 542.988 379.195 544.549 378.092C545.119 377.693 551.298 373.342 558.727 367.644C570.219 367.008 577.819 371.951 580.061 376.916C580.801 378.551 581.274 380.904 579.358 382.814C578.825 383.346 578.27 383.798 577.7 384.249C577.538 384.33 577.39 384.441 577.227 384.515C576.753 384.73 576.368 385.056 576.05 385.433C570.922 388.77 564.47 389.725 555.516 390.99C550.965 391.634 545.881 392.352 540.161 393.506C533.021 394.949 527.278 398.827 521.795 402.8C520.618 403.666 519.76 404.391 517.999 405.523C511.176 410.444 504.206 414.751 494.29 415.328C492.662 415.609 492.581 415.395 491.249 415.402C488.178 415.343 484.789 414.877 481.082 414.033C480.142 408.424 477.256 402.038 471.181 395.275H471.188ZM477.278 315.579C483.916 278.27 503.828 242.462 535.233 242.462C543.269 242.462 549.167 244.697 555.116 248.693C534.449 250.957 517.385 268.576 507.765 297.827C504.021 300.151 500.055 302.644 495.459 305.856C489.044 310.333 483.072 313.071 477.285 315.587L477.278 315.579ZM587.372 327.663C586.24 323.948 583.924 320.589 581.03 318.265C583.716 314.972 587.128 309.608 587.298 303.777C590.006 308.387 592.182 314.21 593.676 321.062C597.791 339.91 595.578 362.716 586.898 375.732C586.721 375.17 586.647 374.607 586.388 374.045C583.783 368.273 576.968 362.775 566.934 361.147C574.134 355.279 581.075 349.056 584.286 344.535C588.001 339.288 589.103 333.302 587.372 327.663ZM521.418 411.643C530.638 421.862 542.522 427.464 556.13 428.019C548.982 432.155 541.774 434.109 533.664 434.109C520.826 434.109 509.77 429.846 500.647 421.544C509.09 419.835 515.579 415.809 521.418 411.643ZM527.071 407.573C531.689 404.273 536.254 401.387 541.538 400.321C547.11 399.197 552.06 398.494 556.493 397.872C566.667 396.429 574.933 395.245 581.733 389.939C600.558 379.602 606.204 345.918 600.469 319.583C595.711 297.775 584.279 284.752 569.886 284.752C563.508 284.752 557.558 287.653 552.541 292.98C551.202 293.639 549.966 294.283 548.997 294.83C546.732 292.122 542.64 288.304 536.772 286.95C530.69 285.551 524.259 287.068 517.696 291.5C517.636 291.537 517.57 291.574 517.511 291.619C527.167 268.487 542.211 255.382 559.711 255.382C593.58 255.382 611.858 299.204 611.858 340.435C611.858 362.176 607.077 382.155 598.405 396.695C591.738 407.869 579.38 421.189 558.357 421.189C545.926 421.189 535.433 416.593 527.079 407.573H527.071ZM482.177 82.6346C500.003 82.6346 514.306 88.399 525.895 100.261C535.729 110.317 543.395 124.902 548.93 143.757C521.092 121.01 489.584 105.544 457.165 97.6635L457.239 97.4341C456.115 97.0641 455.057 96.5609 453.998 96.0503C458.046 90.8557 466.852 82.6346 482.169 82.6346H482.177ZM402.644 7.26792C403.791 6.73514 405.818 7.18653 407.002 8.1485C408.283 9.67285 410.214 18.3084 411.908 25.9227C416.452 46.2795 423.445 77.3955 439.806 94.1264C430.793 92.6982 421.75 91.9213 412.737 91.6697C418.132 70.9651 409.74 40.9517 404.598 22.5632C403.081 17.154 401.519 11.5672 401.519 10.0502C401.519 8.53328 401.889 7.61571 402.637 7.26792H402.644ZM402.17 40.4633C406.277 57.209 409.77 77.7507 405.404 91.5587C395.318 91.6327 385.373 92.4096 375.724 93.8526C383.449 80.2222 389.302 67.5316 393.979 57.357C397.109 50.5418 399.81 44.6885 402.178 40.4633H402.17ZM239.116 86.7488C270.765 50.0682 322.305 30.629 392.336 28.8234C382.642 32.9969 366.799 40.4411 347.745 51.6443C347.434 51.7405 347.123 51.8293 346.842 52.0217C346.509 52.2437 346.221 52.5175 345.888 52.7543C336.253 58.4817 325.864 65.1563 315.045 72.8373C314.609 72.9409 314.187 73.1333 313.81 73.4144C299.691 83.8629 265.615 81.8058 265.267 81.7836C263.41 81.6504 261.701 83.1155 261.575 85.0321C261.449 86.9486 262.907 88.5988 264.823 88.7246C265.238 88.7542 268.22 88.9318 272.667 88.9318C278.72 88.9318 287.474 88.5692 296.146 87.0522C290.937 91.1961 285.691 95.5768 280.429 100.179C279.985 100.35 279.571 100.594 279.208 100.949C278.713 101.437 278.283 101.963 277.81 102.459C251.859 125.59 226.019 154.501 204.856 189.909C204.264 169.367 207.105 123.873 239.124 86.7414L239.116 86.7488ZM208.585 197.331C223.769 171.136 241.573 148.492 260.191 129.09C250.801 150.098 249.654 169.937 249.595 171.143C249.498 173.06 250.971 174.688 252.887 174.784C252.947 174.784 253.013 174.784 253.065 174.784C254.908 174.784 256.439 173.341 256.536 171.484C256.558 171.084 258.866 132.302 282.76 107.32C297.863 93.8822 312.966 82.457 327.181 72.8299C311.945 96.6719 308.548 126.175 308.371 127.818C308.164 129.727 309.547 131.443 311.457 131.643C311.582 131.658 311.708 131.665 311.834 131.665C313.58 131.665 315.082 130.348 315.282 128.565C315.334 128.062 321.084 78.7349 349.869 58.4225C371.38 45.6727 388.866 37.7476 398.004 33.9441C394.963 38.5985 391.751 45.5173 387.652 54.434C368.013 97.1603 327.462 185.173 208.585 197.309V197.331ZM156.557 493.766C163.18 489.607 173.266 490.229 184.255 495.482C193.282 499.804 202.88 509.105 203.738 518.54C204.13 522.862 202.428 526.702 198.891 530.054C189.094 519.842 176.078 506.663 150.393 503.297C151 499.315 153.072 495.963 156.55 493.766H156.557ZM227.965 559.49C233.848 562.495 238.931 565.107 239.509 567.601C239.679 568.34 239.057 569.532 237.829 570.797C232.264 576.539 215.171 582.703 200.038 579.729C182.138 576.214 169.055 565.595 168.922 565.492L166.547 563.545L164.327 565.654C164.061 565.899 137.562 590.769 102.051 602.276C85.8746 607.507 64.0897 606.035 54.4774 599.035C51.1105 596.585 49.4752 593.722 49.4752 590.273C49.4752 583.569 54.7068 581.579 68.5666 577.968C79.0225 575.237 92.0387 571.841 103.582 562.739C105.092 561.548 105.351 559.365 104.159 557.855C102.968 556.338 100.778 556.086 99.2756 557.278C88.8716 565.477 77.1577 568.54 66.8129 571.234C54.322 574.49 42.5194 577.568 42.5194 590.273C42.5194 592.856 43.1558 595.268 44.2584 597.51C36.9178 597.303 23.835 595.572 12.7797 586.862C8.14748 583.207 6.04595 577.427 7.6517 572.78C9.39805 567.734 15.3179 564.84 23.8868 564.84C29.8732 564.84 35.6376 564.337 41.0765 563.538C41.6092 563.494 42.0458 563.516 42.5934 563.464C43.0152 563.42 43.3926 563.279 43.7552 563.109C64.5781 559.609 79.755 551.95 80.569 551.528C82.271 550.655 82.9443 548.561 82.0712 546.852C81.2054 545.164 79.1187 544.476 77.3945 545.342C77.1947 545.446 61.2778 553.474 40.1441 556.634C22.8434 557.892 16.45 552.15 14.5039 549.538C12.6983 547.103 12.1952 544.269 13.1571 541.96C14.1265 539.622 16.228 539.378 24.7822 539.326C31.0572 539.289 39.6409 539.237 51.0143 537.239C65.9545 534.627 78.2455 528.804 90.1295 523.172C105.07 516.091 119.166 509.409 137.473 509.409C169.492 509.409 183.278 523.786 194.348 535.345L196.19 537.261C207.586 549.035 219.359 555.073 227.965 559.476V559.49ZM203.575 502.142C199.587 497.229 194.481 493.166 189.427 490.391C212.84 473.853 237.104 446.977 248.692 433.428L255.056 455.783C244.518 467.482 224.768 487.905 203.575 502.142ZM333.293 796.179C335.639 813.835 315.105 820.724 306.995 821.886C305.093 822.16 303.776 823.921 304.049 825.823C304.301 827.554 305.788 828.805 307.483 828.805C307.653 828.805 307.816 828.79 307.986 828.768C311.975 828.198 316.414 826.948 320.706 825.038C322.726 835.058 326.293 843.664 329.867 851.929C335.706 865.463 341.211 878.243 338.621 896.15C334.226 926.489 295.17 973.263 176.418 956.074C118.448 947.675 102.028 916.033 105.58 891.496C110.079 860.387 145.798 831.284 195.739 838.528C237.503 844.574 262.626 866.677 262.87 866.899C264.305 868.187 266.496 868.061 267.776 866.633C269.056 865.197 268.938 863.007 267.509 861.727C266.71 861.009 252.184 848.192 226.64 839.068C237.089 827.488 253.05 825.608 256.558 825.334C261.604 827.236 266.954 828.058 271.542 828.058C271.831 828.058 272.112 828.058 272.393 828.058C274.317 828.013 275.834 826.43 275.797 824.506C275.753 822.611 274.206 821.102 272.319 821.102H272.245C268.235 821.22 263.321 820.539 258.815 818.793C258.585 818.667 258.341 818.586 258.082 818.512C254.996 817.224 252.14 815.419 249.95 812.947C246.931 809.529 245.754 805.281 246.472 800.323C248.551 785.982 267.302 782.468 272.948 781.735C272.578 791.54 274.288 798.569 278.158 803.039C281.132 806.465 285.195 808.211 290.249 808.211C305.182 808.211 309.222 791.947 309.251 783.659C309.429 781.883 309.629 779.959 309.851 777.961C309.873 777.961 309.888 777.976 309.903 777.976C310.11 778.006 331.251 780.758 333.293 796.165V796.179ZM302.31 783.304C302.31 784.036 302.007 801.27 290.249 801.27C287.267 801.27 285.032 800.36 283.419 798.495C280.925 795.624 278.446 788.839 280.77 772.826C290.301 706.65 306.025 637.832 348.633 616.313L349.758 642.42C318.139 671.686 306.469 741.14 302.31 783.311V783.304ZM422.742 698.687C370.988 698.687 368.413 663.287 365.919 629.048C365.26 619.998 364.646 611.452 363.144 603.578C357.528 574.142 335.062 541.679 309.059 504.096C268.575 445.608 222.696 379.313 222.696 300.646C222.696 262.737 230.215 228.232 244.947 198.004C311.168 181.029 348.47 138.976 371.151 101.63C382.679 99.5504 394.726 98.4701 406.988 98.4701C457.676 98.4701 509.756 117.946 552.008 155.537C557.366 179.142 559.859 208.475 559.497 243.306C552.386 238.422 545.149 235.521 535.226 235.521C495.955 235.521 475.487 280.112 469.678 318.976C460.695 323.149 452.245 328.373 445.022 340.62C442.98 344.083 441.545 347.783 440.501 351.468C440.368 347.916 440.102 344.335 439.643 340.738C436.957 319.649 428.98 300.469 417.185 286.728C409.733 278.04 401.305 272.172 392.506 269.345C392.736 267.177 392.329 264.861 392.166 262.738C391.974 260.214 391.774 257.691 391.581 255.168C391.389 252.644 391.234 250.121 390.923 247.612C390.612 245.059 390.405 242.521 389.236 240.198C388.318 238.363 385.425 238.377 384.737 240.412C383.893 242.891 384.011 245.378 384.056 247.968C384.093 250.624 384.293 253.273 384.448 255.922C384.596 258.453 384.751 260.984 384.899 263.514C384.981 264.861 384.959 266.319 385.084 267.755C381.947 267.37 378.787 267.296 375.627 267.695C373.222 267.999 370.892 268.613 368.612 269.368C366.259 264.047 363.669 258.823 361.383 253.466C360.177 250.646 358.897 247.864 357.661 245.052C357.002 243.55 356.329 242.07 355.581 240.605C354.886 239.236 354.175 237.593 352.599 237.09C351.852 236.853 350.823 236.934 350.357 237.674C348.707 240.294 350.572 244.319 351.46 246.983C352.459 249.995 353.472 253.007 354.656 255.952C356.869 261.45 359.089 267.059 361.745 272.372C358.231 274.333 354.915 276.827 351.859 279.875C349.721 276.93 347.575 273.993 345.392 271.084C344.09 269.345 342.787 267.607 341.485 265.86C340.035 263.921 338.488 261.887 336.298 260.769C334.337 259.77 332.531 261.413 332.835 263.433C333.182 265.727 334.529 267.769 335.824 269.649C337.015 271.373 338.199 273.105 339.391 274.829C341.847 278.403 344.326 281.955 346.857 285.477C346.872 285.499 346.894 285.507 346.901 285.529C344.423 288.799 342.166 292.462 340.175 296.525C338.873 299.181 337.763 301.986 336.727 304.85C327.041 287.771 313.284 275.961 298.433 272.794C297.693 268.583 296.99 264.365 296.109 260.185C295.643 257.95 295.177 255.715 294.704 253.488C294.208 251.127 293.697 248.604 291.84 246.924C290.833 246.014 289.132 246.088 288.429 247.361C287.208 249.581 287.467 251.986 287.77 254.42C288.066 256.766 288.355 259.119 288.651 261.465C289.087 264.965 289.657 268.443 290.212 271.928C288.754 271.935 287.296 272.009 285.831 272.194C282.464 272.624 279.253 273.563 276.167 274.851C273.962 270.707 271.409 266.704 269.019 262.686C267.68 260.429 266.333 258.172 264.993 255.922C263.595 253.577 262.011 250.639 259.621 249.196C258.038 248.234 255.907 249.47 255.929 251.312C255.958 254.109 257.712 257.003 259.029 259.4C260.295 261.702 261.553 264.003 262.818 266.304C265.016 270.315 267.139 274.459 269.522 278.388C265.896 280.778 262.566 283.805 259.532 287.327C259.303 287.046 259.074 286.757 258.844 286.476C258.163 285.632 257.49 284.789 256.795 283.953C255.329 282.191 253.857 280.43 252.392 278.669C250.971 276.967 249.617 275.162 248.07 273.578C247.219 272.705 246.42 271.802 245.347 271.188C244.711 270.825 243.986 270.441 243.231 270.441C242.476 270.441 241.381 270.818 241.048 271.595C240.012 274.044 241.655 276.442 243.046 278.403C244.296 280.164 245.673 281.844 246.982 283.56C248.255 285.233 249.528 286.898 250.808 288.57C252.059 290.205 253.368 291.996 254.922 293.424C244.193 309.667 238.954 333.427 242.202 358.964C244.888 380.053 252.865 399.234 264.653 412.975C275.472 425.577 288.362 432.318 301.408 432.318C303.006 432.318 304.604 432.214 306.21 432.015C320.862 430.15 333.449 419.901 341.648 403.163C342.943 400.529 344.038 397.731 345.052 394.875C347.834 399.796 350.942 404.384 354.427 408.446C365.246 421.048 378.136 427.789 391.182 427.789C392.78 427.789 394.378 427.686 395.984 427.486C406.344 426.169 415.645 420.597 423.119 411.562C423.726 412.45 424.333 413.271 424.939 413.996C399.321 458.831 400.306 500.588 428.121 526.746C442.588 540.355 461.746 547.199 481.681 547.199C500.395 547.199 519.797 541.169 536.676 529.055C551.868 518.14 553.51 505.302 548.597 497.983C544.616 492.049 535.588 489.163 525.998 495.164C497.146 513.249 468.65 515.676 453.421 501.336C439.029 487.779 439.273 462.753 453.473 433.694C457.04 435.174 460.562 436.033 463.847 436.033C469.649 436.033 474.703 433.761 477.988 429.358C479.579 427.227 480.697 424.4 481.178 421.144C484.944 421.899 488.489 422.373 491.693 422.402C502.837 434.738 516.911 441.057 533.642 441.057C546.636 441.057 557.987 436.647 569.383 427.168C569.494 427.072 569.553 426.938 569.649 426.835C583.805 423.734 595.682 414.766 604.339 400.255C613.648 384.656 618.776 363.411 618.776 340.435C618.776 297.435 600.81 253.954 566.393 248.937C566.393 248.922 566.371 248.915 566.364 248.9C566.985 215.653 565.209 187.378 560.947 163.928C609.038 211.331 642.352 283.819 642.352 379.417C642.352 509.594 556.789 698.687 422.72 698.687H422.742ZM507.24 827.036C473.637 806.065 465.912 756.576 466.275 713.531L490.99 698.65C486.802 752.003 495.341 787.758 516.526 804.918C538.926 823.07 563.152 818.534 582.592 814.864L587.934 813.88C592.862 813.014 598.212 814.331 601.557 817.276C603.215 818.734 605.146 821.272 604.976 825.127C604.709 830.884 600.802 835.628 595.245 836.937C575.695 841.533 538.274 846.379 507.232 827.029L507.24 827.036ZM684.139 972.294C666.808 995.61 641.264 1012.35 614.048 1018.22C585.847 1024.28 558.039 1018.57 535.818 1002.05C513.026 985.11 520.212 962.497 526.516 950.531C544.031 917.314 592.692 890.156 631.682 903.543C633.509 904.172 635.47 903.202 636.092 901.382C636.713 899.569 635.751 897.593 633.931 896.972C626.383 894.374 618.495 893.22 610.533 893.205C610.629 890.031 611.887 882.942 619.953 874.165C620.034 874.069 620.064 873.958 620.138 873.855C628.211 868.298 631.8 857.405 632.584 850.716C632.814 848.807 631.452 847.082 629.543 846.86C627.701 846.572 625.91 847.992 625.688 849.902C625.658 850.109 623.09 870.429 608.683 870.429C608.58 870.429 608.476 870.429 608.387 870.429C594.838 870.177 588.741 852.181 586.98 845.676C590.561 845.055 593.943 844.396 596.844 843.708C605.309 841.71 611.51 834.199 611.909 825.46C612.154 820.31 610.111 815.545 606.145 812.067C601.209 807.723 593.773 805.814 586.713 807.05L581.363 808.034C581.948 801.285 585.137 781.742 602.423 781.691H602.475C621.67 781.691 627.234 815.456 627.294 815.804C627.567 817.513 629.047 818.734 630.72 818.734C630.905 818.734 631.09 818.719 631.267 818.689C633.162 818.393 634.457 816.61 634.161 814.716C634.035 813.939 632.533 804.963 628.359 795.713C632.177 792.539 650.514 778.464 664.285 788.676C695.823 812.118 744.609 890.911 684.124 972.294H684.139Z" fill="#133050"/>
</svg>
