<svg width="817" height="953" viewBox="0 0 817 953" fill="none" xmlns="http://www.w3.org/2000/svg">
<path d="M414.828 952.729C530.09 952.729 623.528 941.855 623.528 928.442C623.528 915.029 530.09 904.156 414.828 904.156C299.567 904.156 206.128 915.029 206.128 928.442C206.128 941.855 299.567 952.729 414.828 952.729Z" fill="#133050"/>
<path d="M384.307 43.995C389.167 24.7035 389.87 7.10182 389.87 7.10182L375.124 4.27539C375.124 4.27539 374.175 14.3324 371.64 26.9541C363.445 19.4469 353.545 15.783 342.022 17.944C303.746 25.1222 295.483 89.6815 339.233 93.1659C356.932 94.5792 368.47 82.7725 375.992 67.4813C382.632 90.0255 382.811 116.106 382.811 116.106L391.066 122.313L398.94 120.077C400.256 93.0762 395.096 64.2436 384.307 43.995ZM340.953 76.8803C320.39 75.3774 323.314 30.3489 350.928 35.6204C357.373 36.8467 362.495 40.9816 366.593 46.7392C361.336 63.1145 353.201 77.7776 340.953 76.8803Z" fill="#13A5A5"/>
<path d="M381.899 766.477C374.683 735.55 360.768 730.398 350.972 730.398C341.177 730.398 335.853 738.474 335.853 738.474C335.853 738.474 327.434 730.054 313.002 734.01C298.571 737.958 276.236 771.748 276.236 811.154C276.236 850.559 280.356 898.205 339.465 932.571C398.566 966.937 443.931 930.283 443.931 930.283L457.674 918.371L463.633 906.916C463.633 906.916 492.04 935.322 547.94 935.322C603.841 935.322 633.616 887.213 633.616 865.222C633.616 843.231 598.338 821.697 569.699 821.697C541.061 821.697 523.886 827.656 523.886 827.656L510.83 816.889C510.83 816.889 518.158 813.681 520.678 799.482C523.198 785.282 504.183 757.332 492.728 748.628C481.272 739.925 465.465 737.629 457.906 746.34L452.694 752.928C452.694 752.928 438.607 752.928 435.167 754.131C431.728 755.335 415.292 763.291 416.212 794.449C417.132 825.607 423.54 842.559 423.54 842.559C423.54 842.559 412.541 837.751 395.59 834.767C378.638 831.791 375.199 832.703 375.199 832.703L368.095 816.664C368.095 816.664 377.031 815.745 381.839 804.985C386.647 794.218 381.899 766.499 381.899 766.499V766.477Z" fill="#13A5A5"/>
<path d="M421.932 627.196C421.932 627.196 437.508 685.153 429.036 712.184C420.556 739.214 394.446 748.382 394.446 748.382C394.446 748.382 371.079 751.133 361.919 758.229C352.759 765.333 351.384 780.676 371.767 781.828C392.158 782.972 421.476 765.101 421.476 765.101C421.476 765.101 453.09 747.23 457.674 709.208C462.258 671.178 452.866 638.188 452.866 638.188C452.866 638.188 431.563 634.068 421.94 627.189L421.932 627.196Z" fill="#F9C941"/>
<path d="M486.993 629.941C486.993 629.941 530.063 671.403 530.063 701.873C530.063 732.343 505.776 745.855 505.776 745.855L489.513 757.078C489.513 757.078 475.538 768.362 483.269 778.157C491.001 787.952 500.624 785.373 514.884 774.373C529.143 763.374 558.693 736.919 558.693 703.241C558.693 669.564 523.812 628.334 523.812 628.334L505.597 609.947C505.597 609.947 494.141 623.81 486.986 629.934L486.993 629.941Z" fill="#F9C941"/>
<path d="M677.357 148.632C668.856 176.261 698.892 190.326 698.892 190.326C698.892 190.326 691.333 198.805 692.252 208.884C693.172 218.964 707.372 226.98 720.203 230.875C733.034 234.771 751.585 236.835 758.457 227.436C765.328 218.044 763.265 209.109 763.265 209.109C763.265 209.109 784.568 204.301 798.999 188.494C813.43 172.687 809.766 159.399 809.766 159.399C809.766 159.399 817.326 139.241 806.558 130.993C795.791 122.746 786.168 127.785 786.168 127.785C786.168 127.785 793.727 108.77 782.048 101.443C770.368 94.1148 757.081 104.882 757.081 104.882C757.081 104.882 788.239 46.2375 764.184 37.7582C740.13 29.2789 714.243 89.5312 707.14 117.018L702.332 129.849C702.332 129.849 681.941 133.745 677.365 148.632H677.357Z" fill="white"/>
<path d="M738.754 235.69C743.106 220.115 739.21 214.844 726.387 209.804C713.556 204.764 710.348 212.092 707.604 224.467C704.852 236.834 696.148 274.064 670.03 303.615C643.912 333.165 632.92 334.541 632.92 334.541L635.672 372.339C635.672 372.339 666.254 360.659 694.428 325.605C722.603 290.559 731.539 262.033 731.539 262.033L738.754 235.69Z" fill="#F9C941"/>
<path d="M104.422 541.058C104.422 541.058 91.7108 533.843 81.7435 535.563C71.7762 537.282 60.4406 548.618 63.8727 560.993C63.8727 560.993 37.0665 575.768 31.5706 597.071C26.0748 618.374 35.0102 633.149 35.0102 633.149L47.0337 642.773L59.7452 647.237C59.7452 647.237 70.7444 677.131 102.359 676.443C133.973 675.755 135.349 644.829 135.349 644.829L137.831 642.025C137.831 642.025 153.212 646.205 160.435 632.117C167.651 618.03 160.091 595.695 131.916 583.664C131.916 583.664 153.563 553.598 104.43 541.051L104.422 541.058Z" fill="white"/>
<path d="M392.614 120.488C392.614 120.488 375.087 103.305 342.613 103.305C310.139 103.305 276.461 130.455 276.461 130.455L263.234 145.403C263.234 145.403 216.328 123.24 178.874 156.23C141.42 189.22 156.196 245.232 156.196 245.232C156.196 245.232 127.213 276.503 139.132 328.732C151.044 380.961 191.825 396.08 191.825 396.08C191.825 396.08 181.514 447.165 210.84 481.068C240.166 514.97 261.925 519.554 261.925 519.554L288.268 522.761C288.268 522.761 294.908 587.365 333.169 599.733C371.423 612.1 390.214 585.99 390.214 585.99L401.437 604.548C401.437 604.548 421.484 642.802 465.81 637.994C510.135 633.187 520.446 577.862 520.446 577.862L523.026 572.194C523.026 572.194 548.457 577.69 572.339 552.267C596.222 526.836 606.017 482.683 589.522 435.949L635.336 341.63L611.057 294.374C611.057 294.374 645.535 246.608 618.041 190.252C590.554 133.895 535.229 149.358 535.229 149.358L526.294 147.638C526.294 147.638 502.239 89.2253 451.73 89.2253C422.179 89.2253 392.629 120.496 392.629 120.496L392.614 120.488Z" fill="#9E71D3"/>
<path d="M204.648 435.934C147.148 435.934 112.101 484.043 112.101 484.043C112.101 484.043 98.8142 501.682 92.3986 524.817C85.9831 547.952 86.9028 548.184 89.1908 552.536C91.4789 556.888 103.51 570.175 115.309 560.895C120.805 556.2 123.325 543.144 129.053 527.105C134.78 511.067 160.435 464.333 214.04 471.893C227.559 474.869 238.326 482.204 247.486 481.516C256.646 480.828 264.893 473.956 260.085 459.75C255.277 445.543 222.056 435.927 204.648 435.927V435.934Z" fill="#F9C941"/>
<path d="M330.814 340.604C329.535 346.451 328.817 352.5 328.817 358.729C328.817 405.417 366.668 443.26 413.349 443.26C441.845 443.26 466.999 429.113 482.312 407.511C497.626 429.121 522.772 443.26 551.276 443.26C597.964 443.26 635.807 405.41 635.807 358.729C635.807 352.5 635.089 346.444 633.81 340.604H330.821H330.814Z" fill="white"/>
<path d="M766.652 361.48L703.656 395.958L717.818 463.979C711.275 465.826 695.625 471.494 700.388 482.344C706.811 496.962 727.464 483.129 724.645 466.925L714.849 417.321L758.435 392.279L758.674 442.624C752.954 444.74 733.042 453.227 739.061 466.933C741.484 472.436 746.463 473.797 751.264 471.688C760.446 467.651 763.893 459.194 764.454 445.809L764.499 445.787L766.645 361.487L766.652 361.48Z" fill="#133050"/>
<path d="M649.865 542.433L597.583 591.275L628.053 653.427C622.198 656.829 608.485 666.161 615.768 675.455C625.578 687.979 642.096 669.525 635.373 654.586L620.897 624.273L652.512 585.555L662.217 622.725C657.215 626.179 640.099 639.287 649.296 651.026C652.99 655.745 658.134 655.827 662.254 652.597C670.121 646.435 671.354 637.418 668.588 624.362L668.625 624.332L649.865 542.441V542.433ZM617.809 617.797L613.667 609.116L649.55 574.174L651.33 580.979L617.817 617.79L617.809 617.797Z" fill="#133050"/>
<path d="M330.432 620.742C326.17 620.01 321.975 618.858 317.937 617.318C309.914 614.259 302.519 609.422 296.455 603.35C290.301 597.189 285.575 589.928 282.248 581.898C280.648 578.047 279.504 574.069 278.405 570.053C277.567 566.98 277.163 562.217 274.397 560.221C274.15 560.041 273.836 560.153 273.634 560.318C270.493 562.83 271.331 569.096 271.735 572.573C272.258 577.149 273.492 581.77 275.174 586.062C278.651 594.938 283.826 603.253 290.593 609.997C297.412 616.802 305.629 622.013 314.55 625.595C318.902 627.345 323.418 628.653 328.032 629.483C332.279 630.238 339.277 632.056 343.061 629.513C345.596 627.808 345.603 624.391 343.061 622.686C339.778 620.488 334.298 621.415 330.439 620.75L330.432 620.742Z" fill="#133050"/>
<path d="M297.906 635.899C297.36 632.744 293.33 631.435 290.735 629.88C289.576 629.184 288.469 628.407 287.37 627.607C287.221 627.487 286.974 627.3 286.936 627.27C286.66 627.046 286.391 626.821 286.121 626.59C285.583 626.126 285.052 625.648 284.544 625.162C283.512 624.182 282.54 623.15 281.62 622.066C281.164 621.528 280.7 620.989 280.252 620.443C280.184 620.361 279.923 620.032 279.855 619.95C279.683 619.725 279.519 619.501 279.354 619.269C277.62 616.862 276.229 614.275 274.165 612.121C272.572 610.461 269.821 611.77 269.761 613.946C269.664 617.34 271.114 620.421 272.804 623.3C274.442 626.096 276.461 628.661 278.749 630.964C280.992 633.222 283.519 635.248 286.189 636.983C288.866 638.725 293.539 641.574 296.477 639.436C296.56 639.383 296.642 639.339 296.732 639.286C297.786 638.666 298.422 637.267 298.04 636.063C297.995 635.929 297.958 635.794 297.913 635.66V635.899H297.906Z" fill="#133050"/>
<path d="M9.75142 612.189C9.73646 606.454 10.5814 600.899 11.9423 595.343C12.6451 592.487 13.6097 589.713 14.492 586.909C15.2996 584.344 16.8175 581.712 15.4641 579.14C15.1201 578.489 14.2602 577.958 13.5125 578.018C8.03911 578.452 5.16781 588.18 3.74712 592.539C1.7058 598.798 0.853388 605.609 0.801046 612.182C0.748705 618.635 1.62355 625.163 3.33586 631.384C4.88367 636.999 6.99976 645.366 13.1686 647.475C14.4023 647.901 16.0025 646.989 16.2717 645.71C17.4232 640.289 13.5499 634.592 12.1143 629.499C10.5216 623.854 9.75142 618.044 9.74394 612.182L9.75142 612.189Z" fill="#133050"/>
<path d="M120.057 259.416C113.589 261.263 110.591 271.993 108.736 277.624C106.179 285.378 104.721 293.536 104.1 301.671C103.487 309.634 103.891 317.598 105.147 325.479C106.336 332.926 107.54 342.071 113.881 346.909C115.107 347.843 117.29 346.886 117.552 345.413C118.778 338.557 115.473 331.797 114.284 325.082C112.968 317.613 112.617 309.926 113.066 302.351C113.507 294.956 114.883 287.703 116.984 280.607C118.023 277.093 119.339 273.706 120.558 270.251C121.612 267.275 123.227 263.843 122.285 260.68C122.009 259.753 121.014 259.14 120.057 259.416Z" fill="#133050"/>
<path d="M756.566 284.152C757.837 281.176 759.056 278.185 760.2 275.164C761.471 271.814 762.765 268.651 760.23 265.601C759.422 264.621 757.987 264.472 756.843 264.703C753.485 265.391 752.588 268.756 751.504 271.597C750.367 274.559 749.246 277.527 748.004 280.443C745.507 286.335 742.718 292.115 739.697 297.761C736.766 303.249 733.536 308.55 730.238 313.822C726.903 319.168 722.245 324.447 720.241 330.459C719.344 333.143 722.701 335.686 725.064 334.16C730.373 330.728 734.029 324.522 737.574 319.415C741.432 313.859 744.834 307.937 748.027 301.97C751.137 296.161 753.986 290.209 756.566 284.144V284.152Z" fill="#133050"/>
<path d="M764.432 299.898C762.316 300.848 760.903 303.136 759.639 304.729C758.077 306.695 756.596 308.714 755.078 310.711C755.033 310.77 754.585 311.354 754.757 311.129C754.936 310.905 754.48 311.481 754.435 311.541C754.091 311.982 753.74 312.415 753.388 312.857C752.686 313.731 751.975 314.591 751.257 315.451C749.807 317.179 747.07 320.117 747.638 322.667C747.638 322.689 747.631 322.742 747.623 322.757C747.496 323.31 747.317 323.774 747.369 324.364C747.451 325.329 748.139 326.211 749.194 326.189C749.814 326.174 750.383 326.062 750.943 325.763C751.138 325.68 751.19 325.643 751.22 325.613C751.96 325.65 752.708 325.531 753.351 325.142C755.639 323.781 757.209 321.486 758.795 319.414C760.066 317.747 761.299 316.049 762.503 314.322C763.707 312.587 764.836 310.845 765.846 308.991C766.945 306.987 768.433 304.482 768.291 302.104C768.164 300.033 766.242 299.083 764.432 299.891V299.898Z" fill="#133050"/>
<path d="M399.366 846.829C389.294 844.092 379.798 846.769 378.153 852.811C376.508 858.853 383.342 865.971 393.414 868.715C403.486 871.452 412.982 868.775 414.627 862.733C416.273 856.692 409.438 849.573 399.366 846.829Z" fill="white"/>
<path d="M577.977 840.527C576.856 834.365 567.621 830.881 557.355 832.75C547.088 834.619 539.671 841.125 540.792 847.286C541.914 853.447 551.148 856.932 561.415 855.063C571.681 853.193 579.099 846.688 577.977 840.527Z" fill="white"/>
<path d="M813.991 156.618C816.451 150.374 817.408 143.996 815.696 138.649C811.531 125.684 799.089 123.553 790.602 124.39C794.199 110.924 790.707 100.575 780.941 97.0307C774.563 94.7202 768.544 95.5576 763.078 98.1373C771.101 82.405 781.435 57.7223 775.962 43.5677C774.025 38.5728 770.204 35.1108 764.903 33.5556C758.981 31.8208 752.999 32.6508 747.144 36.038C721.003 51.1198 703.753 114.916 701.061 125.437C687.011 128.592 675.085 137.348 672.946 153.32C670.112 174.391 686.331 187.073 693.658 191.664C692.38 193.316 691.273 195.044 690.503 196.898C686.929 205.512 688.537 218.365 703.82 227.189C700.201 244.633 685.381 296.608 634.303 329.77C629.922 317.261 622.871 306 613.726 296.78C618.489 289.976 622.504 282.274 625.428 273.488C637.75 236.378 630.206 192.299 607.086 166.286C595.234 152.969 574.044 138.567 540.396 145.491C537.203 146.149 534.137 146.994 531.146 147.921C525.082 134.029 516.58 121.295 506.553 111.215C477.489 82.0012 441.515 78.0681 410.275 100.687C407.508 102.691 404.966 104.822 402.536 107.02C401.938 83.4294 396.786 60.6459 388.037 43.6201C392.561 25.0912 393.331 8.52891 393.384 7.26525L393.503 4.2444L371.991 0.12439L371.625 3.97522C371.243 8.12514 370.466 13.9724 369.284 20.545C360.895 14.7276 351.376 12.6414 341.379 14.5183C318.035 18.8925 305.203 42.5508 306.28 62.8891C307.08 78.0382 316.09 94.8697 338.949 96.6942C340.003 96.7764 341.05 96.8213 342.074 96.8213C350.882 96.8213 358.801 93.7481 365.658 87.6616C369.112 84.5958 372.096 80.8721 374.75 76.7746C377.539 89.2767 378.616 101.801 379.027 109.271C362.472 100.134 343.016 97.6887 322.05 102.422C296.313 108.217 276.363 122.147 264.033 142.328C250.753 135.008 235.388 132.63 218.242 135.397C195.331 139.076 176.975 150.135 165.145 167.377C151.327 187.506 146.826 215.322 152.711 243.766C149.136 248.185 145.899 252.985 143.237 258.354C127.31 290.522 130.675 336.275 151.238 367.157C161.145 382.044 174.058 392.004 188.736 396.655C187.6 401.276 186.74 406.039 186.396 410.967C185.873 418.504 186.344 426.332 187.69 434.266C183.091 435.029 178.455 436.061 173.819 437.406C130.271 450.088 98.3953 484.925 86.5063 532.062C74.7744 531.516 63.5659 539.779 60.5226 551.899C59.8646 554.524 59.6552 557.343 59.9319 560.244C43.1677 568.207 30.9348 583.08 27.0914 600.569C23.9061 615.053 27.1662 629.021 36.0418 638.876C44.0425 647.766 53.3294 649.815 57.6663 650.271C60.3506 655.887 68.9196 671.17 85.2651 677.586C90.3273 679.575 95.6137 680.547 100.825 680.547C110.067 680.547 119.085 677.481 126.278 671.582C134.421 664.904 138.653 655.849 138.272 646.256C139.408 646.518 140.545 646.764 141.749 646.854C142.272 646.891 142.788 646.914 143.297 646.914C148.748 646.914 153.832 644.813 158.446 640.67C164.988 634.778 167.695 626.463 166.058 617.266C163.598 603.5 151.821 589.974 136.238 582.384C137.442 580.852 138.519 579.259 139.304 577.547C143.394 568.619 142.183 555.032 126.368 545.162C131.281 527.179 146.34 495.737 173.176 481.755C182.403 476.947 192.273 474.681 202.682 474.868C218.78 502.31 246.918 525.654 278.352 525.654C280.566 525.654 282.794 525.519 285.037 525.28C285.613 551.383 297.494 578.212 315.717 593.316C326.319 602.102 338.246 606.589 350.748 606.589C354.718 606.589 358.756 606.133 362.824 605.22C373.352 602.85 382.444 597.84 390.094 590.602C395.335 603.164 402.76 614.582 411.995 623.42C414.036 625.379 416.167 627.129 418.328 628.789C430.165 661.996 431.593 705.364 421.364 721.762C410.619 738.975 394.946 744.456 379.902 747.858C375.154 737.39 362.27 721.149 344.22 728.29C341.057 729.538 338.582 731.4 336.563 733.599C328.114 729 312.793 725.089 300.964 736.261C284.372 751.911 272.984 785.753 272.617 820.463C272.221 858.306 284.783 891.722 307.985 914.565C332.309 938.508 362.293 950.748 390.909 950.748C414.32 950.748 436.797 942.553 454.488 925.863C458.9 921.706 462.13 917.152 464.359 912.367C472.277 919.059 480.928 924.502 490.761 928.75C507.854 936.13 525.254 939.652 541.876 939.652C580.668 939.652 615.184 920.465 631.447 886.308C641.13 865.992 635.029 846.402 614.728 832.554C591.451 816.694 553.967 812.41 525.142 824.501C523.916 822.138 521.284 818.982 515.862 815.707C516.386 815.296 516.924 814.952 517.425 814.466C529.882 802.42 520.782 782.68 517.418 776.451C533.486 764.891 552.546 746.28 559.68 719.81C568.077 688.66 549.069 645.972 511.241 610.499C512.64 608.278 513.956 605.961 515.182 603.523C519.347 595.223 522.099 585.989 523.729 576.41C528.544 576.365 533.442 575.819 538.324 574.72C560.913 569.628 578.747 555.391 589.896 533.535C604.334 505.233 605.456 467.48 593.275 436.135C615.962 423.76 632.599 401.68 637.661 375.517C668.998 359.036 722.11 319.885 741.618 238.352C741.835 238.352 742.052 238.39 742.269 238.39C753.402 238.39 763.579 230.067 766.017 218.522C766.525 216.122 766.645 213.565 766.346 210.948C797.878 201.803 815.771 182.085 814.275 157.739C814.253 157.35 814.118 156.999 813.976 156.662L813.991 156.618ZM809.011 140.796C811.599 148.864 804.54 163.923 794.483 171.774C790.094 175.206 783.588 178.511 777.569 174.765C767.168 168.312 774.765 151.406 774.84 151.234C774.885 151.137 774.877 151.039 774.907 150.942C780.485 145.499 785.061 138.597 788.023 131.845C788.112 131.83 788.202 131.86 788.292 131.838C788.972 131.666 804.899 128.054 809.011 140.796ZM778.534 103.633C788.464 107.237 784.433 121.347 782.96 125.594C777.39 141.663 762.794 156.662 749.963 154.015C750.681 152.243 751.241 150.366 751.466 148.25C752.139 141.797 748.572 135.995 742.149 131.651C746.224 123.957 761.68 97.4868 778.534 103.633ZM750.651 42.1171C754.853 39.6944 758.868 39.1037 762.921 40.2926C766.181 41.2497 768.237 43.0892 769.404 46.095C775.124 60.8927 756.782 96.253 749.23 108.628C749.103 108.837 749.066 109.069 748.991 109.293C742.628 116.389 738.029 124.368 735.95 128.316C731.711 126.521 726.82 125.16 721.287 124.495C717.13 124.001 712.845 123.927 708.636 124.286C712.853 108.785 728.907 54.6641 750.651 42.1171ZM446.45 492.163C436.371 510.968 420.646 523.246 400.981 527.68C375.685 533.378 356.737 522.229 345.327 511.866C322.955 491.55 309.697 456.032 312.053 423.94C317.691 425.488 323.471 426.325 329.355 426.325C334.178 426.325 339.068 425.787 343.958 424.68C346.867 424.022 349.634 423.11 352.363 422.115C368.2 437.362 389.675 446.798 413.341 446.798C429.514 446.798 444.626 442.341 457.659 434.7C458.96 455.128 455.303 475.668 446.45 492.17V492.163ZM287.198 287.92C302.392 302.814 320.24 310.92 339.061 311.66C330.387 325.291 325.288 341.412 325.288 358.737C325.288 380.825 333.52 400.984 347.009 416.462C345.476 416.919 343.996 417.464 342.411 417.823C305.36 426.183 278.27 399.87 264.736 371.673C265.379 370.866 266.067 370.133 266.695 369.295C282.869 347.671 290.436 316.834 287.198 287.92ZM396.935 238.479C393.974 238.031 391.185 239.399 388.486 240.431C386.213 241.298 383.932 242.211 381.652 243.108C391.656 222.844 409.916 206.753 438.494 200.315C445.366 198.767 451.759 198.079 457.674 198.079C481.975 198.079 498.403 209.647 508.505 220.601C520.82 233.948 529.195 252.544 533.135 272.711C512.692 277.033 494.918 288.458 482.379 304.295C466.243 283.874 441.313 270.699 413.326 270.699C398.491 270.699 384.523 274.423 372.253 280.928C372.604 274.034 373.591 267.245 375.251 260.687C380.71 259.304 386.146 257.771 391.469 256.074C396.464 254.488 403.433 253.217 403.762 246.66C403.972 242.48 401.07 239.115 396.928 238.494L396.935 238.479ZM413.333 277.713C450.623 277.713 482.027 303.069 491.412 337.42H335.247C344.639 303.069 376.044 277.713 413.333 277.713ZM413.333 439.754C368.656 439.754 332.309 403.407 332.309 358.73C332.309 353.847 332.817 349.092 333.647 344.448H430.397C429.851 347.424 429.454 350.453 429.454 353.593C429.454 357.033 429.806 360.382 430.441 363.635L456.395 359.425L438.719 383.233C447.721 396.229 462.482 404.858 479.306 405.59C464.605 426.228 440.543 439.762 413.326 439.762L413.333 439.754ZM486.678 310.135C501.476 290.522 524.843 277.713 551.253 277.713C588.542 277.713 619.947 303.069 629.331 337.42H498.657C496.197 327.572 492.144 318.36 486.678 310.135ZM541.786 152.355C572.152 146.104 591.204 159.003 601.807 170.944C623.005 194.782 630.131 236.976 618.743 271.26C616.156 279.044 612.672 285.916 608.544 292.025C593.126 278.76 573.131 270.684 551.245 270.684C547.484 270.684 543.783 270.946 540.149 271.41C537.741 259.05 533.793 247.213 528.193 236.655C544.306 212.81 543.94 181.973 533.801 154.561C536.418 153.769 539.005 152.924 541.786 152.348V152.355ZM414.38 106.355C442.555 85.9343 475.148 89.6131 501.551 116.15C529.696 144.437 545.323 194.7 524.245 229.813C521.082 224.781 517.582 220.063 513.672 215.823C499.853 200.846 475.365 184.807 436.939 193.451C433.582 194.206 430.419 195.148 427.323 196.143C424.998 166.854 414.081 140.594 397.092 123.127C401.721 117.003 407.493 111.35 414.373 106.355H414.38ZM360.977 82.3826C354.718 87.9307 347.712 90.3459 339.494 89.658C323.912 88.4168 314.116 78.2625 313.279 62.4928C312.359 45.1679 323.097 25.0613 342.65 21.3899C344.624 21.0235 346.568 20.8366 348.467 20.8366C355.414 20.8366 361.867 23.2892 367.751 28.1794C366.959 31.8806 366.047 35.6791 365.015 39.4327C361.029 35.5445 356.528 33.1069 351.57 32.1573C342.822 30.4824 335.203 33.1293 330.058 39.5823C323.755 47.4933 322.162 60.0777 326.282 69.5141C329.138 76.0418 334.253 79.9076 340.691 80.3712C367.273 82.4723 376.246 25.2258 378.19 8.43171L386.153 9.95709C385.712 15.8417 384.366 29.5552 380.657 43.9864L380.44 44.1061C380.485 44.1808 380.515 44.2706 380.56 44.3454C376.844 58.6794 370.787 73.664 360.977 82.3676V82.3826ZM362.629 47.2765C357.679 61.9844 350.868 73.9481 341.199 73.3798C336.451 73.0284 333.969 69.5589 332.72 66.7101C329.684 59.7636 330.933 49.7739 335.554 43.979C338.35 40.4646 342.037 38.7 346.523 38.7C347.712 38.7 348.961 38.8271 350.254 39.0738C354.845 39.9487 358.995 42.7078 362.629 47.2839V47.2765ZM382.257 78.6588L388.262 62.8667C393.144 78.1205 395.776 96.1035 395.552 113.989C394.281 115.425 393.062 116.883 391.911 118.378C390.632 117.272 389.421 116.046 388.09 115.036C387.499 114.587 386.863 114.236 386.258 113.802C386.108 108.396 385.353 93.9874 382.257 78.6514V78.6588ZM323.59 109.249C346.74 104.022 367.004 107.858 383.843 120.629C404.787 136.518 418.388 165.605 420.534 198.663C395.881 208.525 380.343 226.194 372.178 247.101C370.107 248.02 367.998 248.873 365.979 249.89C361.687 252.051 357.373 254.257 353.26 256.739C351.391 257.868 349.514 258.967 347.727 260.231C345.835 261.569 344.168 263.185 342.201 264.388C341.655 264.725 342.112 265.525 342.665 265.465C344.646 265.226 346.613 265.443 348.617 265.323C350.74 265.196 352.819 265.002 354.928 264.732C358.98 264.209 362.973 263.409 366.989 262.639C367.183 262.601 367.377 262.541 367.572 262.504C366.002 269.869 365.224 277.474 365.127 285.153C357.104 290.424 350.023 296.99 344.101 304.519C323.882 305.192 304.538 296.698 288.679 279.515C261.431 249.972 250.021 201.639 261.566 164.588C267.892 144.295 283.781 118.221 323.583 109.264L323.59 109.249ZM170.933 171.325C181.797 155.488 198.091 145.723 219.349 142.306C234.902 139.794 248.765 141.91 260.668 148.475C258.425 152.916 256.399 157.53 254.859 162.487C248.705 182.235 248.705 204.981 253.864 226.703C241.467 218.455 226.355 214.627 209.426 215.696C189.028 216.997 171.748 224.534 158.722 237.171C154.744 212.428 159.022 188.688 170.933 171.325ZM157.085 363.231C137.831 334.309 134.653 291.494 149.54 261.435C157.676 245.007 174.746 224.953 209.89 222.71C229.032 221.491 244.869 226.718 257.169 238.165C261.999 252.851 269.178 266.714 278.494 278.386C284.917 308.34 278.165 342.235 261.072 365.086C248.57 381.797 231.589 391.294 211.961 392.542C190.15 393.926 170.596 383.525 157.085 363.231ZM159.141 618.47C159.986 623.218 159.739 630.023 153.743 635.414C150.131 638.659 146.385 640.087 142.28 639.818C133.202 639.182 125.59 630.224 125.516 630.127C124.267 628.639 122.054 628.445 120.566 629.686C119.078 630.927 118.876 633.141 120.109 634.629C120.364 634.935 124.581 639.833 130.907 643.347C132.402 651.856 129.097 660.149 121.829 666.116C112.557 673.728 99.5468 675.604 87.8373 671.013C70.9385 664.381 63.349 645.747 63.2743 645.56L62.362 643.265L59.902 643.34C59.8571 643.385 49.7478 643.549 41.2685 634.135C33.9257 625.985 31.2638 614.283 33.9556 602.035C37.2382 587.125 47.4896 574.384 61.6143 567.205C65.0314 575.879 73.6079 584.538 90.0207 590.475C96.8998 592.965 103.345 594.064 109.178 594.064C117.963 594.064 125.329 591.537 130.817 587.551C145.637 593.929 156.95 606.162 159.156 618.463L159.141 618.47ZM132.911 574.586C128.237 584.8 112.819 591.275 92.3985 583.872C73.6528 577.09 64.2912 565.762 67.3419 553.567C69.4206 545.267 76.9727 539.218 84.9211 538.964C84.5174 540.945 84.0687 542.904 83.7397 544.923C83.164 555.795 95.5539 565.964 106.194 567.138C106.972 567.22 107.727 567.265 108.467 567.265C116.812 567.265 122.727 561.814 124.701 552.341C133.307 558.539 136.47 566.794 132.911 574.563V574.586ZM169.923 475.488C137.375 492.455 120.91 533.056 118.038 550.06C116.797 557.44 113.088 560.835 106.964 560.169C98.9112 559.28 90.4319 551.496 90.7086 545.693C102.934 472.812 154.281 450.372 175.786 444.114C186.134 441.1 196.468 439.642 206.233 439.642C226.146 439.642 243.635 445.721 253.857 457.072C259.831 463.712 258.792 470.239 255.816 474.135C252.81 478.068 246.955 480.603 240.554 477.403C214.735 465.17 190.972 464.512 169.923 475.488ZM211.333 475.511C219.737 476.722 228.456 479.444 237.481 483.714C245.923 487.953 255.778 485.777 261.401 478.39C265.865 472.535 267.929 462.209 259.083 452.369C245.587 437.369 221.173 430.52 194.659 433.294C193.372 425.824 192.924 418.474 193.41 411.415C193.724 406.914 194.501 402.562 195.533 398.345C199.601 399.145 203.751 399.683 208.028 399.683C209.479 399.683 210.937 399.638 212.41 399.541C230.699 398.375 246.835 390.71 259.711 377.371C270.785 399.1 286.906 414.406 305.196 421.607C302.773 447.927 310.019 475.855 324.241 497.644C318.543 503.82 311.731 508.897 303.843 512.643C267.263 529.998 231.268 506.347 211.333 475.503V475.511ZM361.268 598.326C346.62 601.624 332.428 598.005 320.195 587.865C303.229 573.808 292.245 548.557 292.021 524.091C296.934 523.014 301.883 521.354 306.856 518.992C315.081 515.088 322.244 509.839 328.346 503.499C332.062 508.441 336.137 513.01 340.579 517.047C353.118 528.435 367.235 534.799 382.145 535.995C380.171 551.54 382.16 568.11 387.387 583.454C380.261 590.968 371.512 596.016 361.268 598.326ZM486.648 633.814C514.748 662.474 529.359 689.475 526.727 708.123C523.901 728.14 510.755 738.758 497.618 747.357C489.43 739.304 471.507 728.679 457.195 741.928C454.69 744.239 453.06 746.878 451.969 749.66C449.576 749.346 446.809 749.279 443.878 749.518C445.217 747.948 446.525 746.325 447.781 744.628C467.656 717.545 465.353 673.571 456.941 641.941C460.979 641.859 465.061 641.426 469.152 640.498C475.44 639.078 481.257 636.775 486.656 633.806L486.648 633.814ZM427.308 725.448C437.44 709.208 437.014 675.328 430.554 646.204H450.78C458.698 677.907 458.975 717.5 442.113 740.478C438.061 745.996 433.417 750.692 428.467 754.767C427.667 755.32 426.92 755.948 426.164 756.606C407.546 770.888 385.046 776.339 371.318 778.388C366.45 779.143 361.568 776.444 359.489 771.89C358.098 768.824 358.853 766.132 359.721 764.405C361.508 760.891 365.486 758.035 369.845 757.13L373.113 756.464C390.886 752.868 412.997 748.389 427.308 725.448ZM377.711 829.757C377.427 827.11 376.111 823.222 372.245 818.197C372.881 818.003 373.509 817.876 374.159 817.599C390.131 810.869 388.778 789.178 387.895 782.149C397.085 779.764 407.493 776.092 417.648 770.499C411.711 787.832 412.249 813.225 419.121 838.491C406.05 832.651 391.686 829.368 377.719 829.75L377.711 829.757ZM449.666 920.711C413.176 955.16 354.382 950.352 312.905 909.525C291.071 888.035 279.257 856.421 279.638 820.508C279.982 788.101 290.735 755.545 305.779 741.345C315.373 732.298 327.344 736.762 332.608 739.461C326.222 752.913 330.41 772.07 330.656 773.161C331.03 774.784 332.473 775.89 334.073 775.89C334.335 775.89 334.597 775.861 334.859 775.801C336.75 775.375 337.939 773.49 337.506 771.598C337.438 771.299 330.813 741.121 346.8 734.795C360.805 729.284 369.838 743.588 372.821 749.353C372.455 749.428 372.081 749.51 371.722 749.585L368.424 750.258C361.956 751.597 356.221 755.799 353.462 761.235C351.241 765.609 351.107 770.424 353.096 774.806C356.087 781.386 362.682 785.544 369.718 785.544C370.593 785.544 371.475 785.476 372.357 785.349C374.96 784.96 377.876 784.444 381.001 783.786C381.682 790.15 382.317 806.555 371.43 811.139C359.496 816.156 350.696 800.461 350.329 799.788C349.402 798.098 347.293 797.463 345.566 798.39C343.861 799.317 343.233 801.448 344.16 803.145C347.204 808.753 354.3 817.12 363.497 818.803C369.112 824.688 370.436 828.508 370.697 830.258C363.497 831.125 356.483 833.002 349.925 836.15C348.176 836.988 347.443 839.089 348.288 840.839C349.133 842.588 351.234 843.321 352.976 842.484C386.579 826.31 433.275 845.602 452.544 873.634C457.435 880.745 463.237 892.589 459.633 905.129C459.595 905.226 459.573 905.323 459.543 905.428C458.025 910.505 455.004 915.687 449.673 920.711H449.666ZM512.528 809.366C503.181 818.392 489.34 806.906 488.75 806.413C487.269 805.164 485.048 805.359 483.8 806.832C482.551 808.312 482.738 810.525 484.211 811.774C488.421 815.348 496.205 819.79 504.175 819.79C505.432 819.79 506.695 819.648 507.951 819.409C515.272 822.848 517.881 825.921 518.756 827.462C512.356 830.871 506.493 835.163 501.521 840.472C500.197 841.885 500.272 844.114 501.685 845.437C503.106 846.768 505.319 846.693 506.65 845.273C532.148 818.048 582.635 819.147 610.75 838.319C620.822 845.19 636.083 860.16 625.091 883.25C603.504 928.555 546.946 945.312 493.535 922.259C483.478 917.922 474.737 912.284 466.796 905.188C469.398 894.017 466.669 881.807 458.324 869.664C451.064 859.098 440.147 849.752 427.503 842.723C427.48 842.626 427.503 842.528 427.473 842.431C418.605 814.092 418.059 784.886 426.082 768.032C427.084 765.931 428.318 764.226 429.686 762.79C431.002 761.803 432.281 760.749 433.559 759.68C439.481 756.113 446.473 756.165 450.413 756.576C449.322 771.426 460.149 787.779 460.777 788.707C461.457 789.709 462.564 790.254 463.686 790.254C464.366 790.254 465.046 790.06 465.645 789.656C467.252 788.572 467.678 786.389 466.602 784.781C466.422 784.519 449.344 758.782 461.966 747.103C473.002 736.896 486.641 746.998 491.501 751.283L487.718 753.69C482.17 757.279 478.341 763.276 477.736 769.333C477.242 774.216 478.857 778.754 482.297 782.112C485.804 785.544 490.454 787.331 495.135 787.331C498.208 787.331 501.297 786.561 504.078 784.975C506.359 783.674 508.894 782.134 511.563 780.399C514.502 786.082 521.022 801.149 512.528 809.359V809.366ZM552.89 717.934C544.269 749.929 516.423 769.849 500.601 778.874C496.287 781.319 490.783 780.586 487.217 777.087C484.809 774.731 484.532 771.95 484.727 770.028C485.123 766.103 487.793 761.998 491.539 759.582L495.718 756.92C510.995 747.26 530.01 735.229 533.688 709.103C537.046 685.31 517.724 657.704 500.661 638.502L511.413 620.339C544.082 652.993 560.255 690.596 552.89 717.926V717.934ZM508.894 600.323C499.996 618.051 485.721 629.574 467.596 633.657C444.379 638.876 427.159 628.206 416.84 618.313C396.277 598.618 385.338 565.314 389.346 536.137C393.69 536.003 398.079 535.524 402.506 534.522C424.228 529.632 441.56 516.128 452.627 495.475C453.232 494.339 453.681 493.09 454.249 491.924C467.806 508.419 484.981 517.444 503.286 517.81L500.168 510.617C484.188 509.211 469.226 500.268 457.517 484.783C463.917 468.221 466.131 449.131 464.351 430.348C471.14 425.495 477.212 419.715 482.386 413.172C498.522 433.548 523.302 446.776 551.245 446.776C556.248 446.776 561.115 446.26 565.893 445.452C565.504 448.966 564.899 452.518 564.091 456.092C561.429 454.687 558.461 453.849 555.171 453.715C543.79 453.176 536.687 460.317 532.305 468.198C514.988 466.546 502.964 453.722 502.844 453.587C501.543 452.167 499.315 452.055 497.887 453.356C496.451 454.657 496.347 456.877 497.648 458.313C498.186 458.919 510.531 472.064 529.217 474.838C526.69 481.455 525.822 487.22 525.747 487.796C525.501 489.718 526.854 491.475 528.776 491.729C530.69 491.976 532.462 490.63 532.724 488.701C532.761 488.417 536.634 460.713 554.176 460.713C554.408 460.713 554.647 460.713 554.887 460.728C567.912 461.274 574.358 479.257 574.821 495.737C575.352 514.386 568.54 533.999 554.49 535.389C537.494 536.99 532.627 514.999 532.44 514.057C532.051 512.157 530.234 510.946 528.29 511.327C526.398 511.716 525.172 513.563 525.553 515.462C526.076 518.057 527.071 521.212 528.544 524.443C514.778 528.017 502.613 538.664 502.067 539.158C500.616 540.444 500.497 542.665 501.783 544.115C502.478 544.893 503.435 545.289 504.4 545.289C505.237 545.289 506.067 544.998 506.74 544.4C506.807 544.34 510.643 540.997 516.139 537.58C520.229 559.07 517.934 582.302 508.886 600.33L508.894 600.323ZM583.63 530.297C573.46 550.232 557.257 563.205 536.769 567.819C532.739 568.723 528.738 569.097 524.775 569.209C525.972 557.537 525.194 545.544 522.697 533.984C525.695 532.57 528.895 531.419 532.126 530.783C536.552 537.176 543.229 542.515 552.628 542.515C553.466 542.515 554.318 542.47 555.193 542.388C574.365 540.489 582.456 516.771 581.85 495.543C581.476 482.278 577.693 468.826 570.208 460.87C571.584 455.472 572.653 449.856 573.161 443.904C577.917 442.678 582.523 441.115 586.927 439.149C598.203 468.594 597.119 503.857 583.63 530.29V530.297ZM551.245 439.754C524.835 439.754 501.469 426.953 486.671 407.333C495.935 393.395 501.364 376.69 501.364 358.73C501.364 353.855 500.863 349.107 500.1 344.448H568.308C567.763 347.424 567.366 350.453 567.366 353.593C567.366 357.907 567.95 362.072 568.937 366.073L594.412 361.945L577.625 384.557C586.695 396.804 600.984 404.88 617.218 405.598C602.517 426.235 578.455 439.762 551.245 439.762V439.754ZM638.88 366.79C639.126 364.129 639.291 361.452 639.291 358.73C639.291 351.155 638.229 343.835 636.42 336.814C688.29 304.063 708.262 249.456 711.858 222.134C712.756 215.262 715.933 211.98 721.736 212.398C729.266 212.952 737.438 219.891 737.416 225.065C721.975 307.802 671.122 348.695 638.887 366.783L638.88 366.79ZM759.138 217.019C757.478 224.863 750.591 230.733 743.166 231.226C743.547 229.387 744.018 227.652 744.37 225.768C744.534 215.397 732.399 206.14 722.244 205.392C713.272 204.682 706.931 210.14 705.151 219.861C697.076 214.38 693.95 206.858 696.971 199.575C701.001 189.877 715.231 183.312 734.604 189.54C752.4 195.253 761.568 205.527 759.13 217.019H759.138ZM764.544 204.106C761.052 195.933 752.617 187.94 736.765 182.848C720.622 177.674 707.379 180.366 698.908 186.624C694.07 183.887 677.365 172.978 679.885 154.232C682.398 135.554 702.714 129.363 720.435 131.456C732.743 132.929 745.349 139.053 744.46 147.503C744.048 151.451 742.433 154.307 739.539 156.251C731.187 161.867 713.989 158.599 708.075 156.872C706.213 156.326 704.261 157.395 703.716 159.257C703.17 161.119 704.239 163.07 706.093 163.616C707.088 163.908 730.634 170.675 743.443 162.091C744.317 161.5 745.058 160.812 745.791 160.117C745.895 160.169 745.977 160.252 746.097 160.289C748.415 161.059 750.726 161.411 753.014 161.411C757.335 161.411 761.553 160.109 765.531 157.956C764.245 165.299 764.701 175.049 773.838 180.724C776.717 182.512 779.887 183.401 783.2 183.401C788.239 183.401 793.608 181.345 798.782 177.307C801.317 175.326 803.74 172.851 805.961 170.144C801.631 185.383 786.953 197.563 764.544 204.106Z" fill="#133050"/>
<path d="M554.251 518.795C559.425 519.304 564.525 510.518 565.639 499.167C566.753 487.817 563.463 478.208 558.289 477.7C553.115 477.191 548.015 485.977 546.901 497.328C545.787 508.679 549.077 518.287 554.251 518.795Z" fill="#133050"/>
<path d="M565.422 247.886C567.448 249.202 569.504 250.466 571.583 251.685C575.613 254.04 579.666 256.373 583.988 258.138C596.655 263.312 607.257 263.753 611.273 263.252C612.065 263.155 611.998 262.303 611.535 261.899C607.377 258.257 593.028 248.806 589.132 246.518C585.476 244.372 581.827 242.204 578.305 239.833C574.208 237.074 570.334 233.029 565.654 231.571C559.694 229.716 555.245 237.732 558.438 242.398C560.218 245 562.85 246.219 565.414 247.879L565.422 247.886Z" fill="#133050"/>
<path d="M339.151 573.815C338.799 573.493 338.448 573.172 338.104 572.843C338.037 572.775 337.565 572.387 337.423 572.289C337.356 572.132 337.304 572.013 337.177 571.684L336.601 570.936C336.549 570.884 335.726 570.293 335.846 570.413C334.866 569.463 334.246 568.783 333.154 567.975C332.406 567.429 331.636 566.921 330.903 566.36C328.466 564.491 325.721 561.784 323.575 559.204C321.586 556.811 319.59 553.798 318.035 550.859C317.175 549.229 316.42 547.547 315.672 545.872C314.939 544.22 314.46 542.455 313.346 540.997C311.985 539.225 308.546 538.948 308 541.692C307.163 545.902 309.077 550.456 310.767 554.232C312.479 558.045 314.685 561.515 317.279 564.782C319.695 567.818 322.454 570.547 325.497 572.947C327.449 574.488 329.273 575.789 331.628 576.604C332.092 576.761 332.533 576.993 333.004 577.112C333.296 577.187 335.868 577.292 334.522 577.135C335.539 577.254 336.556 577.479 337.573 577.613C339.51 577.868 340.467 575.026 339.143 573.822L339.151 573.815Z" fill="#133050"/>
<path d="M445.478 610.177C445.396 610.05 445.388 610.043 445.358 609.998C445.343 609.961 445.358 609.983 445.321 609.908C444.835 608.899 444.453 608.241 443.504 607.545C442.913 607.112 442.3 606.715 441.642 606.394C441.335 606.252 441.029 606.117 440.715 605.99C440.513 605.9 440.446 605.878 440.356 605.841C439.967 605.669 439.586 605.504 439.204 605.325C438.531 605.011 437.873 604.682 437.208 604.353C435.757 603.62 434.337 602.82 432.961 601.952C432.213 601.481 431.473 600.988 430.755 600.472C430.456 600.262 430.157 600.038 429.858 599.821C429.678 599.687 429.506 599.56 429.327 599.425C429.521 599.575 429.506 599.56 429.289 599.388C426.732 597.346 424.504 595.006 422.246 592.643C421.094 591.439 420.085 590.063 418.761 589.039C418.126 588.546 417.273 587.977 416.496 587.76C416.055 587.641 414.761 587.469 414.417 587.955C413.624 589.076 413.378 589.854 413.505 591.2C413.609 592.322 413.968 593.211 414.439 594.236C415.142 595.769 416.167 597.219 417.184 598.558C419.24 601.279 421.7 603.732 424.317 605.915C426.971 608.136 429.805 610.17 432.834 611.852C434.434 612.742 436.146 613.595 437.873 614.223C438.883 614.589 440.034 614.843 441.104 614.888C442.173 614.933 443.362 614.29 443.908 614.066C445.411 613.445 446.495 611.77 445.493 610.177H445.478Z" fill="#133050"/>
<path d="M357.732 578.579C357.537 577.884 357.186 577.286 356.677 576.777L355.847 576.142C355.212 575.775 354.524 575.588 353.784 575.581C353.223 575.558 352.699 575.678 352.206 575.932C351.697 576.097 351.256 576.381 350.89 576.777C350.494 577.144 350.21 577.585 350.045 578.093C349.791 578.579 349.671 579.103 349.694 579.671C349.746 580.03 349.791 580.396 349.836 580.755C350.03 581.451 350.381 582.049 350.89 582.557L351.72 583.193C352.356 583.559 353.043 583.746 353.784 583.754C354.344 583.776 354.875 583.656 355.361 583.402C355.87 583.238 356.304 582.954 356.677 582.557C357.074 582.183 357.358 581.75 357.522 581.241C357.777 580.755 357.896 580.232 357.874 579.664C357.829 579.305 357.777 578.938 357.732 578.579Z" fill="#133050"/>
<path d="M492.758 131.658C492.847 130.327 492.72 129.093 491.913 127.815C491.172 126.648 490.23 125.564 489.333 124.517C487.882 122.82 486.305 121.22 484.592 119.784C480.764 116.569 476.562 113.884 471.971 111.895C467.29 109.869 462.579 108.56 457.502 108.052C455.147 107.813 452.836 107.828 450.488 108.104C449.314 108.246 448.095 108.463 446.981 108.875C446.353 109.106 445.605 109.428 445.127 109.914C444.633 110.407 444.357 111.918 443.736 112.105C443.452 112.194 443.489 112.658 443.811 112.643C444.289 112.628 445.007 113.839 445.419 114.154C445.875 114.505 446.428 114.714 446.989 114.856C448.095 115.141 449.359 115.253 450.496 115.38C452.47 115.612 454.451 115.836 456.403 116.21C460.493 116.987 464.635 118.199 468.396 120.001C472.09 121.773 475.545 124.001 478.595 126.73C480.263 128.218 481.841 129.804 483.276 131.516C483.919 132.279 484.488 133.124 485.205 133.826C486.32 134.918 487.763 135.255 489.071 136.017C490.739 136.989 493.124 135.771 493.034 133.744C493.004 133.041 492.885 132.353 492.765 131.658H492.758Z" fill="white"/>
<path d="M582.59 171.086C581.768 168.999 580.848 167.369 579.233 166.091C577.438 164.663 575.322 163.728 573.199 162.883C569.692 161.485 565.774 160.789 561.998 160.849C557.99 160.916 553.01 162.046 550.744 165.35C549.847 166.659 550.744 168.67 552.24 169.022C554.468 169.538 556.3 169.067 558.767 168.962C559.844 168.917 560.921 168.962 561.998 168.992C562.536 169.007 563.082 169.029 563.62 169.074C563.882 169.097 564.151 169.119 564.413 169.149C564.465 169.156 564.458 169.156 564.54 169.171C565.609 169.358 566.663 169.575 567.703 169.882C568.226 170.031 568.735 170.196 569.251 170.383C569.355 170.42 570.103 170.727 570.268 170.787C572.017 171.602 573.602 172.79 575.39 173.433C575.943 173.77 576.481 174.151 577.109 174.323C577.453 174.368 577.797 174.413 578.149 174.465C578.552 174.458 578.567 174.48 578.201 174.525C578.822 174.817 579.928 175.28 580.803 175.258C583.121 175.198 583.248 172.761 582.59 171.086Z" fill="white"/>
</svg>
